<?xml version="1.0" encoding="utf-8" standalone="no"?>
<!DOCTYPE svg PUBLIC "-//W3C//DTD SVG 1.1//EN"
  "http://www.w3.org/Graphics/SVG/1.1/DTD/svg11.dtd">
<!-- Created with matplotlib (https://matplotlib.org/) -->
<svg height="1440pt" version="1.1" viewBox="0 0 1440 1440" width="1440pt" xmlns="http://www.w3.org/2000/svg" xmlns:xlink="http://www.w3.org/1999/xlink">
 <defs>
  <style type="text/css">
*{stroke-linecap:butt;stroke-linejoin:round;}
  </style>
 </defs>
 <g id="figure_1">
  <g id="patch_1">
   <path d="M 0 1440 
L 1440 1440 
L 1440 0 
L 0 0 
z
" style="fill:#ffffff;"/>
  </g>
  <g id="axes_1">
   <g id="patch_2">
    <path d="M 180 666.981818 
L 1296 666.981818 
L 1296 172.8 
L 180 172.8 
z
" style="fill:#ffffff;"/>
   </g>
   <g id="matplotlib.axis_1">
    <g id="xtick_1">
     <g id="line2d_1">
      <defs>
       <path d="M 0 0 
L 0 3.5 
" id="md91b0ffbc1" style="stroke:#000000;stroke-width:0.8;"/>
      </defs>
      <g>
       <use style="stroke:#000000;stroke-width:0.8;" x="180" xlink:href="#md91b0ffbc1" y="666.981818"/>
      </g>
     </g>
     <g id="text_1">
      <!-- 0.0 -->
      <defs>
       <path d="M 31.78125 66.40625 
Q 24.171875 66.40625 20.328125 58.90625 
Q 16.5 51.421875 16.5 36.375 
Q 16.5 21.390625 20.328125 13.890625 
Q 24.171875 6.390625 31.78125 6.390625 
Q 39.453125 6.390625 43.28125 13.890625 
Q 47.125 21.390625 47.125 36.375 
Q 47.125 51.421875 43.28125 58.90625 
Q 39.453125 66.40625 31.78125 66.40625 
z
M 31.78125 74.21875 
Q 44.046875 74.21875 50.515625 64.515625 
Q 56.984375 54.828125 56.984375 36.375 
Q 56.984375 17.96875 50.515625 8.265625 
Q 44.046875 -1.421875 31.78125 -1.421875 
Q 19.53125 -1.421875 13.0625 8.265625 
Q 6.59375 17.96875 6.59375 36.375 
Q 6.59375 54.828125 13.0625 64.515625 
Q 19.53125 74.21875 31.78125 74.21875 
z
" id="DejaVuSans-48"/>
       <path d="M 10.6875 12.40625 
L 21 12.40625 
L 21 0 
L 10.6875 0 
z
" id="DejaVuSans-46"/>
      </defs>
      <g transform="translate(165.687187 687.659006)scale(0.18 -0.18)">
       <use xlink:href="#DejaVuSans-48"/>
       <use x="63.623047" xlink:href="#DejaVuSans-46"/>
       <use x="95.410156" xlink:href="#DejaVuSans-48"/>
      </g>
     </g>
    </g>
    <g id="xtick_2">
     <g id="line2d_2">
      <g>
       <use style="stroke:#000000;stroke-width:0.8;" x="403.2" xlink:href="#md91b0ffbc1" y="666.981818"/>
      </g>
     </g>
     <g id="text_2">
      <!-- 0.2 -->
      <defs>
       <path d="M 19.1875 8.296875 
L 53.609375 8.296875 
L 53.609375 0 
L 7.328125 0 
L 7.328125 8.296875 
Q 12.9375 14.109375 22.625 23.890625 
Q 32.328125 33.6875 34.8125 36.53125 
Q 39.546875 41.84375 41.421875 45.53125 
Q 43.3125 49.21875 43.3125 52.78125 
Q 43.3125 58.59375 39.234375 62.25 
Q 35.15625 65.921875 28.609375 65.921875 
Q 23.96875 65.921875 18.8125 64.3125 
Q 13.671875 62.703125 7.8125 59.421875 
L 7.8125 69.390625 
Q 13.765625 71.78125 18.9375 73 
Q 24.125 74.21875 28.421875 74.21875 
Q 39.75 74.21875 46.484375 68.546875 
Q 53.21875 62.890625 53.21875 53.421875 
Q 53.21875 48.921875 51.53125 44.890625 
Q 49.859375 40.875 45.40625 35.40625 
Q 44.1875 33.984375 37.640625 27.21875 
Q 31.109375 20.453125 19.1875 8.296875 
z
" id="DejaVuSans-50"/>
      </defs>
      <g transform="translate(388.887188 687.659006)scale(0.18 -0.18)">
       <use xlink:href="#DejaVuSans-48"/>
       <use x="63.623047" xlink:href="#DejaVuSans-46"/>
       <use x="95.410156" xlink:href="#DejaVuSans-50"/>
      </g>
     </g>
    </g>
    <g id="xtick_3">
     <g id="line2d_3">
      <g>
       <use style="stroke:#000000;stroke-width:0.8;" x="626.4" xlink:href="#md91b0ffbc1" y="666.981818"/>
      </g>
     </g>
     <g id="text_3">
      <!-- 0.4 -->
      <defs>
       <path d="M 37.796875 64.3125 
L 12.890625 25.390625 
L 37.796875 25.390625 
z
M 35.203125 72.90625 
L 47.609375 72.90625 
L 47.609375 25.390625 
L 58.015625 25.390625 
L 58.015625 17.1875 
L 47.609375 17.1875 
L 47.609375 0 
L 37.796875 0 
L 37.796875 17.1875 
L 4.890625 17.1875 
L 4.890625 26.703125 
z
" id="DejaVuSans-52"/>
      </defs>
      <g transform="translate(612.087188 687.659006)scale(0.18 -0.18)">
       <use xlink:href="#DejaVuSans-48"/>
       <use x="63.623047" xlink:href="#DejaVuSans-46"/>
       <use x="95.410156" xlink:href="#DejaVuSans-52"/>
      </g>
     </g>
    </g>
    <g id="xtick_4">
     <g id="line2d_4">
      <g>
       <use style="stroke:#000000;stroke-width:0.8;" x="849.6" xlink:href="#md91b0ffbc1" y="666.981818"/>
      </g>
     </g>
     <g id="text_4">
      <!-- 0.6 -->
      <defs>
       <path d="M 33.015625 40.375 
Q 26.375 40.375 22.484375 35.828125 
Q 18.609375 31.296875 18.609375 23.390625 
Q 18.609375 15.53125 22.484375 10.953125 
Q 26.375 6.390625 33.015625 6.390625 
Q 39.65625 6.390625 43.53125 10.953125 
Q 47.40625 15.53125 47.40625 23.390625 
Q 47.40625 31.296875 43.53125 35.828125 
Q 39.65625 40.375 33.015625 40.375 
z
M 52.59375 71.296875 
L 52.59375 62.3125 
Q 48.875 64.0625 45.09375 64.984375 
Q 41.3125 65.921875 37.59375 65.921875 
Q 27.828125 65.921875 22.671875 59.328125 
Q 17.53125 52.734375 16.796875 39.40625 
Q 19.671875 43.65625 24.015625 45.921875 
Q 28.375 48.1875 33.59375 48.1875 
Q 44.578125 48.1875 50.953125 41.515625 
Q 57.328125 34.859375 57.328125 23.390625 
Q 57.328125 12.15625 50.6875 5.359375 
Q 44.046875 -1.421875 33.015625 -1.421875 
Q 20.359375 -1.421875 13.671875 8.265625 
Q 6.984375 17.96875 6.984375 36.375 
Q 6.984375 53.65625 15.1875 63.9375 
Q 23.390625 74.21875 37.203125 74.21875 
Q 40.921875 74.21875 44.703125 73.484375 
Q 48.484375 72.75 52.59375 71.296875 
z
" id="DejaVuSans-54"/>
      </defs>
      <g transform="translate(835.287188 687.659006)scale(0.18 -0.18)">
       <use xlink:href="#DejaVuSans-48"/>
       <use x="63.623047" xlink:href="#DejaVuSans-46"/>
       <use x="95.410156" xlink:href="#DejaVuSans-54"/>
      </g>
     </g>
    </g>
    <g id="xtick_5">
     <g id="line2d_5">
      <g>
       <use style="stroke:#000000;stroke-width:0.8;" x="1072.8" xlink:href="#md91b0ffbc1" y="666.981818"/>
      </g>
     </g>
     <g id="text_5">
      <!-- 0.8 -->
      <defs>
       <path d="M 31.78125 34.625 
Q 24.75 34.625 20.71875 30.859375 
Q 16.703125 27.09375 16.703125 20.515625 
Q 16.703125 13.921875 20.71875 10.15625 
Q 24.75 6.390625 31.78125 6.390625 
Q 38.8125 6.390625 42.859375 10.171875 
Q 46.921875 13.96875 46.921875 20.515625 
Q 46.921875 27.09375 42.890625 30.859375 
Q 38.875 34.625 31.78125 34.625 
z
M 21.921875 38.8125 
Q 15.578125 40.375 12.03125 44.71875 
Q 8.5 49.078125 8.5 55.328125 
Q 8.5 64.0625 14.71875 69.140625 
Q 20.953125 74.21875 31.78125 74.21875 
Q 42.671875 74.21875 48.875 69.140625 
Q 55.078125 64.0625 55.078125 55.328125 
Q 55.078125 49.078125 51.53125 44.71875 
Q 48 40.375 41.703125 38.8125 
Q 48.828125 37.15625 52.796875 32.3125 
Q 56.78125 27.484375 56.78125 20.515625 
Q 56.78125 9.90625 50.3125 4.234375 
Q 43.84375 -1.421875 31.78125 -1.421875 
Q 19.734375 -1.421875 13.25 4.234375 
Q 6.78125 9.90625 6.78125 20.515625 
Q 6.78125 27.484375 10.78125 32.3125 
Q 14.796875 37.15625 21.921875 38.8125 
z
M 18.3125 54.390625 
Q 18.3125 48.734375 21.84375 45.5625 
Q 25.390625 42.390625 31.78125 42.390625 
Q 38.140625 42.390625 41.71875 45.5625 
Q 45.3125 48.734375 45.3125 54.390625 
Q 45.3125 60.0625 41.71875 63.234375 
Q 38.140625 66.40625 31.78125 66.40625 
Q 25.390625 66.40625 21.84375 63.234375 
Q 18.3125 60.0625 18.3125 54.390625 
z
" id="DejaVuSans-56"/>
      </defs>
      <g transform="translate(1058.487188 687.659006)scale(0.18 -0.18)">
       <use xlink:href="#DejaVuSans-48"/>
       <use x="63.623047" xlink:href="#DejaVuSans-46"/>
       <use x="95.410156" xlink:href="#DejaVuSans-56"/>
      </g>
     </g>
    </g>
    <g id="xtick_6">
     <g id="line2d_6">
      <g>
       <use style="stroke:#000000;stroke-width:0.8;" x="1296" xlink:href="#md91b0ffbc1" y="666.981818"/>
      </g>
     </g>
     <g id="text_6">
      <!-- 1.0 -->
      <defs>
       <path d="M 12.40625 8.296875 
L 28.515625 8.296875 
L 28.515625 63.921875 
L 10.984375 60.40625 
L 10.984375 69.390625 
L 28.421875 72.90625 
L 38.28125 72.90625 
L 38.28125 8.296875 
L 54.390625 8.296875 
L 54.390625 0 
L 12.40625 0 
z
" id="DejaVuSans-49"/>
      </defs>
      <g transform="translate(1281.687187 687.659006)scale(0.18 -0.18)">
       <use xlink:href="#DejaVuSans-49"/>
       <use x="63.623047" xlink:href="#DejaVuSans-46"/>
       <use x="95.410156" xlink:href="#DejaVuSans-48"/>
      </g>
     </g>
    </g>
    <g id="text_7">
     <!-- Brain Region -->
     <defs>
      <path d="M 19.671875 34.8125 
L 19.671875 8.109375 
L 35.5 8.109375 
Q 43.453125 8.109375 47.28125 11.40625 
Q 51.125 14.703125 51.125 21.484375 
Q 51.125 28.328125 47.28125 31.5625 
Q 43.453125 34.8125 35.5 34.8125 
z
M 19.671875 64.796875 
L 19.671875 42.828125 
L 34.28125 42.828125 
Q 41.5 42.828125 45.03125 45.53125 
Q 48.578125 48.25 48.578125 53.8125 
Q 48.578125 59.328125 45.03125 62.0625 
Q 41.5 64.796875 34.28125 64.796875 
z
M 9.8125 72.90625 
L 35.015625 72.90625 
Q 46.296875 72.90625 52.390625 68.21875 
Q 58.5 63.53125 58.5 54.890625 
Q 58.5 48.1875 55.375 44.234375 
Q 52.25 40.28125 46.1875 39.3125 
Q 53.46875 37.75 57.5 32.78125 
Q 61.53125 27.828125 61.53125 20.40625 
Q 61.53125 10.640625 54.890625 5.3125 
Q 48.25 0 35.984375 0 
L 9.8125 0 
z
" id="DejaVuSans-66"/>
      <path d="M 41.109375 46.296875 
Q 39.59375 47.171875 37.8125 47.578125 
Q 36.03125 48 33.890625 48 
Q 26.265625 48 22.1875 43.046875 
Q 18.109375 38.09375 18.109375 28.8125 
L 18.109375 0 
L 9.078125 0 
L 9.078125 54.6875 
L 18.109375 54.6875 
L 18.109375 46.1875 
Q 20.953125 51.171875 25.484375 53.578125 
Q 30.03125 56 36.53125 56 
Q 37.453125 56 38.578125 55.875 
Q 39.703125 55.765625 41.0625 55.515625 
z
" id="DejaVuSans-114"/>
      <path d="M 34.28125 27.484375 
Q 23.390625 27.484375 19.1875 25 
Q 14.984375 22.515625 14.984375 16.5 
Q 14.984375 11.71875 18.140625 8.90625 
Q 21.296875 6.109375 26.703125 6.109375 
Q 34.1875 6.109375 38.703125 11.40625 
Q 43.21875 16.703125 43.21875 25.484375 
L 43.21875 27.484375 
z
M 52.203125 31.203125 
L 52.203125 0 
L 43.21875 0 
L 43.21875 8.296875 
Q 40.140625 3.328125 35.546875 0.953125 
Q 30.953125 -1.421875 24.3125 -1.421875 
Q 15.921875 -1.421875 10.953125 3.296875 
Q 6 8.015625 6 15.921875 
Q 6 25.140625 12.171875 29.828125 
Q 18.359375 34.515625 30.609375 34.515625 
L 43.21875 34.515625 
L 43.21875 35.40625 
Q 43.21875 41.609375 39.140625 45 
Q 35.0625 48.390625 27.6875 48.390625 
Q 23 48.390625 18.546875 47.265625 
Q 14.109375 46.140625 10.015625 43.890625 
L 10.015625 52.203125 
Q 14.9375 54.109375 19.578125 55.046875 
Q 24.21875 56 28.609375 56 
Q 40.484375 56 46.34375 49.84375 
Q 52.203125 43.703125 52.203125 31.203125 
z
" id="DejaVuSans-97"/>
      <path d="M 9.421875 54.6875 
L 18.40625 54.6875 
L 18.40625 0 
L 9.421875 0 
z
M 9.421875 75.984375 
L 18.40625 75.984375 
L 18.40625 64.59375 
L 9.421875 64.59375 
z
" id="DejaVuSans-105"/>
      <path d="M 54.890625 33.015625 
L 54.890625 0 
L 45.90625 0 
L 45.90625 32.71875 
Q 45.90625 40.484375 42.875 44.328125 
Q 39.84375 48.1875 33.796875 48.1875 
Q 26.515625 48.1875 22.3125 43.546875 
Q 18.109375 38.921875 18.109375 30.90625 
L 18.109375 0 
L 9.078125 0 
L 9.078125 54.6875 
L 18.109375 54.6875 
L 18.109375 46.1875 
Q 21.34375 51.125 25.703125 53.5625 
Q 30.078125 56 35.796875 56 
Q 45.21875 56 50.046875 50.171875 
Q 54.890625 44.34375 54.890625 33.015625 
z
" id="DejaVuSans-110"/>
      <path id="DejaVuSans-32"/>
      <path d="M 44.390625 34.1875 
Q 47.5625 33.109375 50.5625 29.59375 
Q 53.5625 26.078125 56.59375 19.921875 
L 66.609375 0 
L 56 0 
L 46.6875 18.703125 
Q 43.0625 26.03125 39.671875 28.421875 
Q 36.28125 30.8125 30.421875 30.8125 
L 19.671875 30.8125 
L 19.671875 0 
L 9.8125 0 
L 9.8125 72.90625 
L 32.078125 72.90625 
Q 44.578125 72.90625 50.734375 67.671875 
Q 56.890625 62.453125 56.890625 51.90625 
Q 56.890625 45.015625 53.6875 40.46875 
Q 50.484375 35.9375 44.390625 34.1875 
z
M 19.671875 64.796875 
L 19.671875 38.921875 
L 32.078125 38.921875 
Q 39.203125 38.921875 42.84375 42.21875 
Q 46.484375 45.515625 46.484375 51.90625 
Q 46.484375 58.296875 42.84375 61.546875 
Q 39.203125 64.796875 32.078125 64.796875 
z
" id="DejaVuSans-82"/>
      <path d="M 56.203125 29.59375 
L 56.203125 25.203125 
L 14.890625 25.203125 
Q 15.484375 15.921875 20.484375 11.0625 
Q 25.484375 6.203125 34.421875 6.203125 
Q 39.59375 6.203125 44.453125 7.46875 
Q 49.3125 8.734375 54.109375 11.28125 
L 54.109375 2.78125 
Q 49.265625 0.734375 44.1875 -0.34375 
Q 39.109375 -1.421875 33.890625 -1.421875 
Q 20.796875 -1.421875 13.15625 6.1875 
Q 5.515625 13.8125 5.515625 26.8125 
Q 5.515625 40.234375 12.765625 48.109375 
Q 20.015625 56 32.328125 56 
Q 43.359375 56 49.78125 48.890625 
Q 56.203125 41.796875 56.203125 29.59375 
z
M 47.21875 32.234375 
Q 47.125 39.59375 43.09375 43.984375 
Q 39.0625 48.390625 32.421875 48.390625 
Q 24.90625 48.390625 20.390625 44.140625 
Q 15.875 39.890625 15.1875 32.171875 
z
" id="DejaVuSans-101"/>
      <path d="M 45.40625 27.984375 
Q 45.40625 37.75 41.375 43.109375 
Q 37.359375 48.484375 30.078125 48.484375 
Q 22.859375 48.484375 18.828125 43.109375 
Q 14.796875 37.75 14.796875 27.984375 
Q 14.796875 18.265625 18.828125 12.890625 
Q 22.859375 7.515625 30.078125 7.515625 
Q 37.359375 7.515625 41.375 12.890625 
Q 45.40625 18.265625 45.40625 27.984375 
z
M 54.390625 6.78125 
Q 54.390625 -7.171875 48.1875 -13.984375 
Q 42 -20.796875 29.203125 -20.796875 
Q 24.46875 -20.796875 20.265625 -20.09375 
Q 16.0625 -19.390625 12.109375 -17.921875 
L 12.109375 -9.1875 
Q 16.0625 -11.328125 19.921875 -12.34375 
Q 23.78125 -13.375 27.78125 -13.375 
Q 36.625 -13.375 41.015625 -8.765625 
Q 45.40625 -4.15625 45.40625 5.171875 
L 45.40625 9.625 
Q 42.625 4.78125 38.28125 2.390625 
Q 33.9375 0 27.875 0 
Q 17.828125 0 11.671875 7.65625 
Q 5.515625 15.328125 5.515625 27.984375 
Q 5.515625 40.671875 11.671875 48.328125 
Q 17.828125 56 27.875 56 
Q 33.9375 56 38.28125 53.609375 
Q 42.625 51.21875 45.40625 46.390625 
L 45.40625 54.6875 
L 54.390625 54.6875 
z
" id="DejaVuSans-103"/>
      <path d="M 30.609375 48.390625 
Q 23.390625 48.390625 19.1875 42.75 
Q 14.984375 37.109375 14.984375 27.296875 
Q 14.984375 17.484375 19.15625 11.84375 
Q 23.34375 6.203125 30.609375 6.203125 
Q 37.796875 6.203125 41.984375 11.859375 
Q 46.1875 17.53125 46.1875 27.296875 
Q 46.1875 37.015625 41.984375 42.703125 
Q 37.796875 48.390625 30.609375 48.390625 
z
M 30.609375 56 
Q 42.328125 56 49.015625 48.375 
Q 55.71875 40.765625 55.71875 27.296875 
Q 55.71875 13.875 49.015625 6.21875 
Q 42.328125 -1.421875 30.609375 -1.421875 
Q 18.84375 -1.421875 12.171875 6.21875 
Q 5.515625 13.875 5.515625 27.296875 
Q 5.515625 40.765625 12.171875 48.375 
Q 18.84375 56 30.609375 56 
z
" id="DejaVuSans-111"/>
     </defs>
     <g transform="translate(673.928125 710.599318)scale(0.2 -0.2)">
      <use xlink:href="#DejaVuSans-66"/>
      <use x="68.603516" xlink:href="#DejaVuSans-114"/>
      <use x="109.716797" xlink:href="#DejaVuSans-97"/>
      <use x="170.996094" xlink:href="#DejaVuSans-105"/>
      <use x="198.779297" xlink:href="#DejaVuSans-110"/>
      <use x="262.158203" xlink:href="#DejaVuSans-32"/>
      <use x="293.945312" xlink:href="#DejaVuSans-82"/>
      <use x="363.365234" xlink:href="#DejaVuSans-101"/>
      <use x="424.888672" xlink:href="#DejaVuSans-103"/>
      <use x="488.365234" xlink:href="#DejaVuSans-105"/>
      <use x="516.148438" xlink:href="#DejaVuSans-111"/>
      <use x="577.330078" xlink:href="#DejaVuSans-110"/>
     </g>
    </g>
   </g>
   <g id="matplotlib.axis_2">
    <g id="ytick_1">
     <g id="line2d_7">
      <defs>
       <path d="M 0 0 
L -3.5 0 
" id="mc4ae2b9a2e" style="stroke:#000000;stroke-width:0.8;"/>
      </defs>
      <g>
       <use style="stroke:#000000;stroke-width:0.8;" x="180" xlink:href="#mc4ae2b9a2e" y="666.981818"/>
      </g>
     </g>
     <g id="text_8">
      <!-- 0.0 -->
      <g transform="translate(144.374375 673.820412)scale(0.18 -0.18)">
       <use xlink:href="#DejaVuSans-48"/>
       <use x="63.623047" xlink:href="#DejaVuSans-46"/>
       <use x="95.410156" xlink:href="#DejaVuSans-48"/>
      </g>
     </g>
    </g>
    <g id="ytick_2">
     <g id="line2d_8">
      <g>
       <use style="stroke:#000000;stroke-width:0.8;" x="180" xlink:href="#mc4ae2b9a2e" y="568.145455"/>
      </g>
     </g>
     <g id="text_9">
      <!-- 0.2 -->
      <g transform="translate(144.374375 574.984048)scale(0.18 -0.18)">
       <use xlink:href="#DejaVuSans-48"/>
       <use x="63.623047" xlink:href="#DejaVuSans-46"/>
       <use x="95.410156" xlink:href="#DejaVuSans-50"/>
      </g>
     </g>
    </g>
    <g id="ytick_3">
     <g id="line2d_9">
      <g>
       <use style="stroke:#000000;stroke-width:0.8;" x="180" xlink:href="#mc4ae2b9a2e" y="469.309091"/>
      </g>
     </g>
     <g id="text_10">
      <!-- 0.4 -->
      <g transform="translate(144.374375 476.147685)scale(0.18 -0.18)">
       <use xlink:href="#DejaVuSans-48"/>
       <use x="63.623047" xlink:href="#DejaVuSans-46"/>
       <use x="95.410156" xlink:href="#DejaVuSans-52"/>
      </g>
     </g>
    </g>
    <g id="ytick_4">
     <g id="line2d_10">
      <g>
       <use style="stroke:#000000;stroke-width:0.8;" x="180" xlink:href="#mc4ae2b9a2e" y="370.472727"/>
      </g>
     </g>
     <g id="text_11">
      <!-- 0.6 -->
      <g transform="translate(144.374375 377.311321)scale(0.18 -0.18)">
       <use xlink:href="#DejaVuSans-48"/>
       <use x="63.623047" xlink:href="#DejaVuSans-46"/>
       <use x="95.410156" xlink:href="#DejaVuSans-54"/>
      </g>
     </g>
    </g>
    <g id="ytick_5">
     <g id="line2d_11">
      <g>
       <use style="stroke:#000000;stroke-width:0.8;" x="180" xlink:href="#mc4ae2b9a2e" y="271.636364"/>
      </g>
     </g>
     <g id="text_12">
      <!-- 0.8 -->
      <g transform="translate(144.374375 278.474957)scale(0.18 -0.18)">
       <use xlink:href="#DejaVuSans-48"/>
       <use x="63.623047" xlink:href="#DejaVuSans-46"/>
       <use x="95.410156" xlink:href="#DejaVuSans-56"/>
      </g>
     </g>
    </g>
    <g id="ytick_6">
     <g id="line2d_12">
      <g>
       <use style="stroke:#000000;stroke-width:0.8;" x="180" xlink:href="#mc4ae2b9a2e" y="172.8"/>
      </g>
     </g>
     <g id="text_13">
      <!-- 1.0 -->
      <g transform="translate(144.374375 179.638594)scale(0.18 -0.18)">
       <use xlink:href="#DejaVuSans-49"/>
       <use x="63.623047" xlink:href="#DejaVuSans-46"/>
       <use x="95.410156" xlink:href="#DejaVuSans-48"/>
      </g>
     </g>
    </g>
    <g id="text_14">
     <!-- Weight [PCA x GLM] -->
     <defs>
      <path d="M 3.328125 72.90625 
L 13.28125 72.90625 
L 28.609375 11.28125 
L 43.890625 72.90625 
L 54.984375 72.90625 
L 70.3125 11.28125 
L 85.59375 72.90625 
L 95.609375 72.90625 
L 77.296875 0 
L 64.890625 0 
L 49.515625 63.28125 
L 33.984375 0 
L 21.578125 0 
z
" id="DejaVuSans-87"/>
      <path d="M 54.890625 33.015625 
L 54.890625 0 
L 45.90625 0 
L 45.90625 32.71875 
Q 45.90625 40.484375 42.875 44.328125 
Q 39.84375 48.1875 33.796875 48.1875 
Q 26.515625 48.1875 22.3125 43.546875 
Q 18.109375 38.921875 18.109375 30.90625 
L 18.109375 0 
L 9.078125 0 
L 9.078125 75.984375 
L 18.109375 75.984375 
L 18.109375 46.1875 
Q 21.34375 51.125 25.703125 53.5625 
Q 30.078125 56 35.796875 56 
Q 45.21875 56 50.046875 50.171875 
Q 54.890625 44.34375 54.890625 33.015625 
z
" id="DejaVuSans-104"/>
      <path d="M 18.3125 70.21875 
L 18.3125 54.6875 
L 36.8125 54.6875 
L 36.8125 47.703125 
L 18.3125 47.703125 
L 18.3125 18.015625 
Q 18.3125 11.328125 20.140625 9.421875 
Q 21.96875 7.515625 27.59375 7.515625 
L 36.8125 7.515625 
L 36.8125 0 
L 27.59375 0 
Q 17.1875 0 13.234375 3.875 
Q 9.28125 7.765625 9.28125 18.015625 
L 9.28125 47.703125 
L 2.6875 47.703125 
L 2.6875 54.6875 
L 9.28125 54.6875 
L 9.28125 70.21875 
z
" id="DejaVuSans-116"/>
      <path d="M 8.59375 75.984375 
L 29.296875 75.984375 
L 29.296875 69 
L 17.578125 69 
L 17.578125 -6.203125 
L 29.296875 -6.203125 
L 29.296875 -13.1875 
L 8.59375 -13.1875 
z
" id="DejaVuSans-91"/>
      <path d="M 19.671875 64.796875 
L 19.671875 37.40625 
L 32.078125 37.40625 
Q 38.96875 37.40625 42.71875 40.96875 
Q 46.484375 44.53125 46.484375 51.125 
Q 46.484375 57.671875 42.71875 61.234375 
Q 38.96875 64.796875 32.078125 64.796875 
z
M 9.8125 72.90625 
L 32.078125 72.90625 
Q 44.34375 72.90625 50.609375 67.359375 
Q 56.890625 61.8125 56.890625 51.125 
Q 56.890625 40.328125 50.609375 34.8125 
Q 44.34375 29.296875 32.078125 29.296875 
L 19.671875 29.296875 
L 19.671875 0 
L 9.8125 0 
z
" id="DejaVuSans-80"/>
      <path d="M 64.40625 67.28125 
L 64.40625 56.890625 
Q 59.421875 61.53125 53.78125 63.8125 
Q 48.140625 66.109375 41.796875 66.109375 
Q 29.296875 66.109375 22.65625 58.46875 
Q 16.015625 50.828125 16.015625 36.375 
Q 16.015625 21.96875 22.65625 14.328125 
Q 29.296875 6.6875 41.796875 6.6875 
Q 48.140625 6.6875 53.78125 8.984375 
Q 59.421875 11.28125 64.40625 15.921875 
L 64.40625 5.609375 
Q 59.234375 2.09375 53.4375 0.328125 
Q 47.65625 -1.421875 41.21875 -1.421875 
Q 24.65625 -1.421875 15.125 8.703125 
Q 5.609375 18.84375 5.609375 36.375 
Q 5.609375 53.953125 15.125 64.078125 
Q 24.65625 74.21875 41.21875 74.21875 
Q 47.75 74.21875 53.53125 72.484375 
Q 59.328125 70.75 64.40625 67.28125 
z
" id="DejaVuSans-67"/>
      <path d="M 34.1875 63.1875 
L 20.796875 26.90625 
L 47.609375 26.90625 
z
M 28.609375 72.90625 
L 39.796875 72.90625 
L 67.578125 0 
L 57.328125 0 
L 50.6875 18.703125 
L 17.828125 18.703125 
L 11.1875 0 
L 0.78125 0 
z
" id="DejaVuSans-65"/>
      <path d="M 54.890625 54.6875 
L 35.109375 28.078125 
L 55.90625 0 
L 45.3125 0 
L 29.390625 21.484375 
L 13.484375 0 
L 2.875 0 
L 24.125 28.609375 
L 4.6875 54.6875 
L 15.28125 54.6875 
L 29.78125 35.203125 
L 44.28125 54.6875 
z
" id="DejaVuSans-120"/>
      <path d="M 59.515625 10.40625 
L 59.515625 29.984375 
L 43.40625 29.984375 
L 43.40625 38.09375 
L 69.28125 38.09375 
L 69.28125 6.78125 
Q 63.578125 2.734375 56.6875 0.65625 
Q 49.8125 -1.421875 42 -1.421875 
Q 24.90625 -1.421875 15.25 8.5625 
Q 5.609375 18.5625 5.609375 36.375 
Q 5.609375 54.25 15.25 64.234375 
Q 24.90625 74.21875 42 74.21875 
Q 49.125 74.21875 55.546875 72.453125 
Q 61.96875 70.703125 67.390625 67.28125 
L 67.390625 56.78125 
Q 61.921875 61.421875 55.765625 63.765625 
Q 49.609375 66.109375 42.828125 66.109375 
Q 29.4375 66.109375 22.71875 58.640625 
Q 16.015625 51.171875 16.015625 36.375 
Q 16.015625 21.625 22.71875 14.15625 
Q 29.4375 6.6875 42.828125 6.6875 
Q 48.046875 6.6875 52.140625 7.59375 
Q 56.25 8.5 59.515625 10.40625 
z
" id="DejaVuSans-71"/>
      <path d="M 9.8125 72.90625 
L 19.671875 72.90625 
L 19.671875 8.296875 
L 55.171875 8.296875 
L 55.171875 0 
L 9.8125 0 
z
" id="DejaVuSans-76"/>
      <path d="M 9.8125 72.90625 
L 24.515625 72.90625 
L 43.109375 23.296875 
L 61.8125 72.90625 
L 76.515625 72.90625 
L 76.515625 0 
L 66.890625 0 
L 66.890625 64.015625 
L 48.09375 14.015625 
L 38.1875 14.015625 
L 19.390625 64.015625 
L 19.390625 0 
L 9.8125 0 
z
" id="DejaVuSans-77"/>
      <path d="M 30.421875 75.984375 
L 30.421875 -13.1875 
L 9.71875 -13.1875 
L 9.71875 -6.203125 
L 21.390625 -6.203125 
L 21.390625 69 
L 9.71875 69 
L 9.71875 75.984375 
z
" id="DejaVuSans-93"/>
     </defs>
     <g transform="translate(136.215 520.365909)rotate(-90)scale(0.2 -0.2)">
      <use xlink:href="#DejaVuSans-87"/>
      <use x="98.798828" xlink:href="#DejaVuSans-101"/>
      <use x="160.322266" xlink:href="#DejaVuSans-105"/>
      <use x="188.105469" xlink:href="#DejaVuSans-103"/>
      <use x="251.582031" xlink:href="#DejaVuSans-104"/>
      <use x="314.960938" xlink:href="#DejaVuSans-116"/>
      <use x="354.169922" xlink:href="#DejaVuSans-32"/>
      <use x="385.957031" xlink:href="#DejaVuSans-91"/>
      <use x="424.970703" xlink:href="#DejaVuSans-80"/>
      <use x="485.273438" xlink:href="#DejaVuSans-67"/>
      <use x="555.097656" xlink:href="#DejaVuSans-65"/>
      <use x="623.505859" xlink:href="#DejaVuSans-32"/>
      <use x="655.292969" xlink:href="#DejaVuSans-120"/>
      <use x="714.472656" xlink:href="#DejaVuSans-32"/>
      <use x="746.259766" xlink:href="#DejaVuSans-71"/>
      <use x="823.75" xlink:href="#DejaVuSans-76"/>
      <use x="879.462891" xlink:href="#DejaVuSans-77"/>
      <use x="965.742188" xlink:href="#DejaVuSans-93"/>
     </g>
    </g>
   </g>
   <g id="LineCollection_1">
    <path clip-path="url(#p901b42c7fa)" d="M -1 666.981818 
L 1441 666.981818 
" style="fill:none;stroke:#000000;stroke-width:1.5;"/>
   </g>
   <g id="patch_3">
    <path d="M 180 666.981818 
L 180 172.8 
" style="fill:none;stroke:#000000;stroke-linecap:square;stroke-linejoin:miter;stroke-width:0.8;"/>
   </g>
   <g id="patch_4">
    <path d="M 1296 666.981818 
L 1296 172.8 
" style="fill:none;stroke:#000000;stroke-linecap:square;stroke-linejoin:miter;stroke-width:0.8;"/>
   </g>
   <g id="patch_5">
    <path d="M 180 666.981818 
L 1296 666.981818 
" style="fill:none;stroke:#000000;stroke-linecap:square;stroke-linejoin:miter;stroke-width:0.8;"/>
   </g>
   <g id="patch_6">
    <path d="M 180 172.8 
L 1296 172.8 
" style="fill:none;stroke:#000000;stroke-linecap:square;stroke-linejoin:miter;stroke-width:0.8;"/>
   </g>
   <g id="text_15">
    <!-- Neuron Weights for All Trials for All Sessions -->
    <defs>
     <path d="M 9.8125 72.90625 
L 23.09375 72.90625 
L 55.421875 11.921875 
L 55.421875 72.90625 
L 64.984375 72.90625 
L 64.984375 0 
L 51.703125 0 
L 19.390625 60.984375 
L 19.390625 0 
L 9.8125 0 
z
" id="DejaVuSans-78"/>
     <path d="M 8.5 21.578125 
L 8.5 54.6875 
L 17.484375 54.6875 
L 17.484375 21.921875 
Q 17.484375 14.15625 20.5 10.265625 
Q 23.53125 6.390625 29.59375 6.390625 
Q 36.859375 6.390625 41.078125 11.03125 
Q 45.3125 15.671875 45.3125 23.6875 
L 45.3125 54.6875 
L 54.296875 54.6875 
L 54.296875 0 
L 45.3125 0 
L 45.3125 8.40625 
Q 42.046875 3.421875 37.71875 1 
Q 33.40625 -1.421875 27.6875 -1.421875 
Q 18.265625 -1.421875 13.375 4.4375 
Q 8.5 10.296875 8.5 21.578125 
z
M 31.109375 56 
z
" id="DejaVuSans-117"/>
     <path d="M 44.28125 53.078125 
L 44.28125 44.578125 
Q 40.484375 46.53125 36.375 47.5 
Q 32.28125 48.484375 27.875 48.484375 
Q 21.1875 48.484375 17.84375 46.4375 
Q 14.5 44.390625 14.5 40.28125 
Q 14.5 37.15625 16.890625 35.375 
Q 19.28125 33.59375 26.515625 31.984375 
L 29.59375 31.296875 
Q 39.15625 29.25 43.1875 25.515625 
Q 47.21875 21.78125 47.21875 15.09375 
Q 47.21875 7.46875 41.1875 3.015625 
Q 35.15625 -1.421875 24.609375 -1.421875 
Q 20.21875 -1.421875 15.453125 -0.5625 
Q 10.6875 0.296875 5.421875 2 
L 5.421875 11.28125 
Q 10.40625 8.6875 15.234375 7.390625 
Q 20.0625 6.109375 24.8125 6.109375 
Q 31.15625 6.109375 34.5625 8.28125 
Q 37.984375 10.453125 37.984375 14.40625 
Q 37.984375 18.0625 35.515625 20.015625 
Q 33.0625 21.96875 24.703125 23.78125 
L 21.578125 24.515625 
Q 13.234375 26.265625 9.515625 29.90625 
Q 5.8125 33.546875 5.8125 39.890625 
Q 5.8125 47.609375 11.28125 51.796875 
Q 16.75 56 26.8125 56 
Q 31.78125 56 36.171875 55.265625 
Q 40.578125 54.546875 44.28125 53.078125 
z
" id="DejaVuSans-115"/>
     <path d="M 37.109375 75.984375 
L 37.109375 68.5 
L 28.515625 68.5 
Q 23.6875 68.5 21.796875 66.546875 
Q 19.921875 64.59375 19.921875 59.515625 
L 19.921875 54.6875 
L 34.71875 54.6875 
L 34.71875 47.703125 
L 19.921875 47.703125 
L 19.921875 0 
L 10.890625 0 
L 10.890625 47.703125 
L 2.296875 47.703125 
L 2.296875 54.6875 
L 10.890625 54.6875 
L 10.890625 58.5 
Q 10.890625 67.625 15.140625 71.796875 
Q 19.390625 75.984375 28.609375 75.984375 
z
" id="DejaVuSans-102"/>
     <path d="M 9.421875 75.984375 
L 18.40625 75.984375 
L 18.40625 0 
L 9.421875 0 
z
" id="DejaVuSans-108"/>
     <path d="M -0.296875 72.90625 
L 61.375 72.90625 
L 61.375 64.59375 
L 35.5 64.59375 
L 35.5 0 
L 25.59375 0 
L 25.59375 64.59375 
L -0.296875 64.59375 
z
" id="DejaVuSans-84"/>
     <path d="M 53.515625 70.515625 
L 53.515625 60.890625 
Q 47.90625 63.578125 42.921875 64.890625 
Q 37.9375 66.21875 33.296875 66.21875 
Q 25.25 66.21875 20.875 63.09375 
Q 16.5 59.96875 16.5 54.203125 
Q 16.5 49.359375 19.40625 46.890625 
Q 22.3125 44.4375 30.421875 42.921875 
L 36.375 41.703125 
Q 47.40625 39.59375 52.65625 34.296875 
Q 57.90625 29 57.90625 20.125 
Q 57.90625 9.515625 50.796875 4.046875 
Q 43.703125 -1.421875 29.984375 -1.421875 
Q 24.8125 -1.421875 18.96875 -0.25 
Q 13.140625 0.921875 6.890625 3.21875 
L 6.890625 13.375 
Q 12.890625 10.015625 18.65625 8.296875 
Q 24.421875 6.59375 29.984375 6.59375 
Q 38.421875 6.59375 43.015625 9.90625 
Q 47.609375 13.234375 47.609375 19.390625 
Q 47.609375 24.75 44.3125 27.78125 
Q 41.015625 30.8125 33.5 32.328125 
L 27.484375 33.5 
Q 16.453125 35.6875 11.515625 40.375 
Q 6.59375 45.0625 6.59375 53.421875 
Q 6.59375 63.09375 13.40625 68.65625 
Q 20.21875 74.21875 32.171875 74.21875 
Q 37.3125 74.21875 42.625 73.28125 
Q 47.953125 72.359375 53.515625 70.515625 
z
" id="DejaVuSans-83"/>
    </defs>
    <g transform="translate(471.410625 166.8)scale(0.24 -0.24)">
     <use xlink:href="#DejaVuSans-78"/>
     <use x="74.804688" xlink:href="#DejaVuSans-101"/>
     <use x="136.328125" xlink:href="#DejaVuSans-117"/>
     <use x="199.707031" xlink:href="#DejaVuSans-114"/>
     <use x="240.789062" xlink:href="#DejaVuSans-111"/>
     <use x="301.970703" xlink:href="#DejaVuSans-110"/>
     <use x="365.349609" xlink:href="#DejaVuSans-32"/>
     <use x="397.136719" xlink:href="#DejaVuSans-87"/>
     <use x="495.935547" xlink:href="#DejaVuSans-101"/>
     <use x="557.458984" xlink:href="#DejaVuSans-105"/>
     <use x="585.242188" xlink:href="#DejaVuSans-103"/>
     <use x="648.71875" xlink:href="#DejaVuSans-104"/>
     <use x="712.097656" xlink:href="#DejaVuSans-116"/>
     <use x="751.306641" xlink:href="#DejaVuSans-115"/>
     <use x="803.40625" xlink:href="#DejaVuSans-32"/>
     <use x="835.193359" xlink:href="#DejaVuSans-102"/>
     <use x="870.398438" xlink:href="#DejaVuSans-111"/>
     <use x="931.580078" xlink:href="#DejaVuSans-114"/>
     <use x="972.693359" xlink:href="#DejaVuSans-32"/>
     <use x="1004.480469" xlink:href="#DejaVuSans-65"/>
     <use x="1072.888672" xlink:href="#DejaVuSans-108"/>
     <use x="1100.671875" xlink:href="#DejaVuSans-108"/>
     <use x="1128.455078" xlink:href="#DejaVuSans-32"/>
     <use x="1160.242188" xlink:href="#DejaVuSans-84"/>
     <use x="1221.107422" xlink:href="#DejaVuSans-114"/>
     <use x="1262.220703" xlink:href="#DejaVuSans-105"/>
     <use x="1290.003906" xlink:href="#DejaVuSans-97"/>
     <use x="1351.283203" xlink:href="#DejaVuSans-108"/>
     <use x="1379.066406" xlink:href="#DejaVuSans-115"/>
     <use x="1431.166016" xlink:href="#DejaVuSans-32"/>
     <use x="1462.953125" xlink:href="#DejaVuSans-102"/>
     <use x="1498.158203" xlink:href="#DejaVuSans-111"/>
     <use x="1559.339844" xlink:href="#DejaVuSans-114"/>
     <use x="1600.453125" xlink:href="#DejaVuSans-32"/>
     <use x="1632.240234" xlink:href="#DejaVuSans-65"/>
     <use x="1700.648438" xlink:href="#DejaVuSans-108"/>
     <use x="1728.431641" xlink:href="#DejaVuSans-108"/>
     <use x="1756.214844" xlink:href="#DejaVuSans-32"/>
     <use x="1788.001953" xlink:href="#DejaVuSans-83"/>
     <use x="1851.478516" xlink:href="#DejaVuSans-101"/>
     <use x="1913.001953" xlink:href="#DejaVuSans-115"/>
     <use x="1965.101562" xlink:href="#DejaVuSans-115"/>
     <use x="2017.201172" xlink:href="#DejaVuSans-105"/>
     <use x="2044.984375" xlink:href="#DejaVuSans-111"/>
     <use x="2106.166016" xlink:href="#DejaVuSans-110"/>
     <use x="2169.544922" xlink:href="#DejaVuSans-115"/>
    </g>
   </g>
  </g>
  <g id="axes_2">
   <g id="patch_7">
    <path d="M 180 1260 
L 1296 1260 
L 1296 765.818182 
L 180 765.818182 
z
" style="fill:#ffffff;"/>
   </g>
   <g id="PolyCollection_1">
    <defs>
     <path d="M 253.119915 -215.29079 
L 246.380085 -215.29079 
L 249.75 -218.817213 
L 249.75 -222.343636 
L 249.75 -225.870059 
L 249.75 -229.396482 
L 249.75 -232.922905 
L 249.75 -236.449328 
L 249.75 -239.975751 
L 249.75 -243.502174 
L 249.75 -247.028597 
L 249.75 -250.55502 
L 249.75 -254.081443 
L 249.75 -257.607866 
L 249.75 -261.134289 
L 249.75 -264.660712 
L 249.75 -268.187135 
L 249.75 -271.713557 
L 249.75 -275.23998 
L 249.75 -278.766403 
L 249.75 -282.292826 
L 249.75 -285.819249 
L 249.75 -289.345672 
L 249.75 -292.872095 
L 249.75 -296.398518 
L 249.75 -299.924941 
L 249.75 -303.451364 
L 249.75 -306.977787 
L 249.75 -310.50421 
L 249.75 -314.030633 
L 249.75 -317.557056 
L 249.75 -321.083479 
L 249.75 -324.609902 
L 249.75 -328.136325 
L 249.75 -331.662748 
L 249.75 -335.189171 
L 249.75 -338.715594 
L 249.75 -342.242017 
L 231.189929 -345.76844 
L 249.75 -349.294863 
L 249.75 -352.821286 
L 249.726559 -356.347709 
L 249.75 -359.874131 
L 249.75 -363.400554 
L 249.75 -366.926977 
L 249.75 -370.4534 
L 242.846737 -373.979823 
L 224.250218 -377.506246 
L 249.75 -381.032669 
L 249.75 -384.559092 
L 249.656502 -388.085515 
L 249.75 -391.611938 
L 249.749911 -395.138361 
L 249.749725 -398.664784 
L 225.237645 -402.191207 
L 245.974353 -405.71763 
L 219.394804 -409.244053 
L 249.689138 -412.770476 
L 191.265348 -416.296899 
L 246.311215 -419.823322 
L 232.698948 -423.349745 
L 232.402042 -426.876168 
L 249.469155 -430.402591 
L 180 -433.929014 
L 227.468735 -437.455437 
L 237.155718 -440.98186 
L 239.394073 -444.508282 
L 249.727753 -448.034705 
L 244.130716 -451.561128 
L 249.530614 -455.087551 
L 249.726252 -458.613974 
L 249.647127 -462.140397 
L 248.117475 -465.66682 
L 249.749429 -469.193243 
L 249.642896 -472.719666 
L 224.897163 -476.246089 
L 243.178067 -479.772512 
L 249.75 -483.298935 
L 248.490717 -486.825358 
L 249.75 -490.351781 
L 249.75 -493.878204 
L 249.75 -497.404627 
L 249.75 -500.93105 
L 249.75 -504.457473 
L 249.75 -507.983896 
L 249.75 -511.510319 
L 243.54149 -515.036742 
L 249.75 -518.563165 
L 249.75 -522.089588 
L 249.75 -525.616011 
L 249.75 -529.142433 
L 249.75 -532.668856 
L 249.75 -536.195279 
L 249.75 -539.721702 
L 249.75 -543.248125 
L 249.75 -546.774548 
L 249.75 -550.300971 
L 249.75 -553.827394 
L 249.75 -557.353817 
L 249.75 -560.88024 
L 246.380085 -564.406663 
L 253.119915 -564.406663 
L 253.119915 -564.406663 
L 249.75 -560.88024 
L 249.75 -557.353817 
L 249.75 -553.827394 
L 249.75 -550.300971 
L 249.75 -546.774548 
L 249.75 -543.248125 
L 249.75 -539.721702 
L 249.75 -536.195279 
L 249.75 -532.668856 
L 249.75 -529.142433 
L 249.75 -525.616011 
L 249.75 -522.089588 
L 249.75 -518.563165 
L 255.95851 -515.036742 
L 249.75 -511.510319 
L 249.75 -507.983896 
L 249.75 -504.457473 
L 249.75 -500.93105 
L 249.75 -497.404627 
L 249.75 -493.878204 
L 249.75 -490.351781 
L 251.009283 -486.825358 
L 249.75 -483.298935 
L 256.321933 -479.772512 
L 274.602837 -476.246089 
L 249.857104 -472.719666 
L 249.750571 -469.193243 
L 251.382525 -465.66682 
L 249.852873 -462.140397 
L 249.773748 -458.613974 
L 249.969386 -455.087551 
L 255.369284 -451.561128 
L 249.772247 -448.034705 
L 260.105927 -444.508282 
L 262.344282 -440.98186 
L 272.031265 -437.455437 
L 319.5 -433.929014 
L 250.030845 -430.402591 
L 267.097958 -426.876168 
L 266.801052 -423.349745 
L 253.188785 -419.823322 
L 308.234652 -416.296899 
L 249.810862 -412.770476 
L 280.105196 -409.244053 
L 253.525647 -405.71763 
L 274.262355 -402.191207 
L 249.750275 -398.664784 
L 249.750089 -395.138361 
L 249.75 -391.611938 
L 249.843498 -388.085515 
L 249.75 -384.559092 
L 249.75 -381.032669 
L 275.249782 -377.506246 
L 256.653263 -373.979823 
L 249.75 -370.4534 
L 249.75 -366.926977 
L 249.75 -363.400554 
L 249.75 -359.874131 
L 249.773441 -356.347709 
L 249.75 -352.821286 
L 249.75 -349.294863 
L 268.310071 -345.76844 
L 249.75 -342.242017 
L 249.75 -338.715594 
L 249.75 -335.189171 
L 249.75 -331.662748 
L 249.75 -328.136325 
L 249.75 -324.609902 
L 249.75 -321.083479 
L 249.75 -317.557056 
L 249.75 -314.030633 
L 249.75 -310.50421 
L 249.75 -306.977787 
L 249.75 -303.451364 
L 249.75 -299.924941 
L 249.75 -296.398518 
L 249.75 -292.872095 
L 249.75 -289.345672 
L 249.75 -285.819249 
L 249.75 -282.292826 
L 249.75 -278.766403 
L 249.75 -275.23998 
L 249.75 -271.713557 
L 249.75 -268.187135 
L 249.75 -264.660712 
L 249.75 -261.134289 
L 249.75 -257.607866 
L 249.75 -254.081443 
L 249.75 -250.55502 
L 249.75 -247.028597 
L 249.75 -243.502174 
L 249.75 -239.975751 
L 249.75 -236.449328 
L 249.75 -232.922905 
L 249.75 -229.396482 
L 249.75 -225.870059 
L 249.75 -222.343636 
L 249.75 -218.817213 
L 253.119915 -215.29079 
z
" id="mb2c885ac35" style="stroke:#3d3d3d;stroke-width:1.5;"/>
    </defs>
    <g clip-path="url(#p0d5eb9637f)">
     <use style="fill:#3274a1;stroke:#3d3d3d;stroke-width:1.5;" x="0" xlink:href="#mb2c885ac35" y="1440"/>
    </g>
   </g>
   <g id="PolyCollection_2">
    <defs>
     <path d="M 391.38396 -202.46281 
L 387.11604 -202.46281 
L 389.25 -206.076143 
L 389.25 -209.689476 
L 389.25 -213.302809 
L 389.25 -216.916142 
L 389.25 -220.529475 
L 389.25 -224.142808 
L 389.25 -227.756141 
L 389.25 -231.369474 
L 389.25 -234.982807 
L 389.25 -238.59614 
L 389.25 -242.209473 
L 389.25 -245.822806 
L 389.25 -249.436139 
L 389.25 -253.049472 
L 389.25 -256.662805 
L 389.25 -260.276138 
L 389.25 -263.889471 
L 389.25 -267.502804 
L 389.25 -271.116137 
L 389.25 -274.72947 
L 389.25 -278.342803 
L 389.25 -281.956136 
L 389.25 -285.569469 
L 389.25 -289.182802 
L 389.25 -292.796135 
L 389.25 -296.409468 
L 389.25 -300.022801 
L 389.25 -303.636134 
L 389.25 -307.249467 
L 389.25 -310.8628 
L 389.25 -314.476133 
L 389.25 -318.089466 
L 389.25 -321.702799 
L 389.25 -325.316132 
L 389.25 -328.929465 
L 389.25 -332.542798 
L 389.25 -336.156131 
L 389.25 -339.769464 
L 389.25 -343.382797 
L 389.25 -346.996129 
L 389.25 -350.609462 
L 389.25 -354.222795 
L 389.25 -357.836128 
L 386.628939 -361.449461 
L 389.25 -365.062794 
L 389.25 -368.676127 
L 389.25 -372.28946 
L 389.25 -375.902793 
L 389.25 -379.516126 
L 389.25 -383.129459 
L 389.25 -386.742792 
L 388.732233 -390.356125 
L 382.919655 -393.969458 
L 389.25 -397.582791 
L 388.647718 -401.196124 
L 389.238711 -404.809457 
L 389.093566 -408.42279 
L 374.019649 -412.036123 
L 388.798048 -415.649456 
L 361.035989 -419.262789 
L 389.25 -422.876122 
L 360.838615 -426.489455 
L 389.249929 -430.102788 
L 389.132054 -433.716121 
L 389.25 -437.329454 
L 373.483591 -440.942787 
L 373.428001 -444.55612 
L 389.249999 -448.169453 
L 389.25 -451.782786 
L 377.823105 -455.396119 
L 386.733617 -459.009452 
L 389.242561 -462.622785 
L 389.25 -466.236118 
L 389.249998 -469.849451 
L 389.25 -473.462784 
L 389.25 -477.076117 
L 389.25 -480.68945 
L 389.25 -484.302783 
L 389.242596 -487.916116 
L 389.25 -491.529449 
L 389.25 -495.142782 
L 389.25 -498.756115 
L 389.25 -502.369448 
L 389.25 -505.982781 
L 389.25 -509.596114 
L 389.25 -513.209447 
L 389.25 -516.82278 
L 389.25 -520.436113 
L 389.25 -524.049446 
L 389.25 -527.662779 
L 389.25 -531.276112 
L 389.25 -534.889445 
L 389.25 -538.502778 
L 389.25 -542.116111 
L 389.25 -545.729444 
L 389.25 -549.342777 
L 389.25 -552.95611 
L 389.25 -556.569443 
L 387.11604 -560.182776 
L 391.38396 -560.182776 
L 391.38396 -560.182776 
L 389.25 -556.569443 
L 389.25 -552.95611 
L 389.25 -549.342777 
L 389.25 -545.729444 
L 389.25 -542.116111 
L 389.25 -538.502778 
L 389.25 -534.889445 
L 389.25 -531.276112 
L 389.25 -527.662779 
L 389.25 -524.049446 
L 389.25 -520.436113 
L 389.25 -516.82278 
L 389.25 -513.209447 
L 389.25 -509.596114 
L 389.25 -505.982781 
L 389.25 -502.369448 
L 389.25 -498.756115 
L 389.25 -495.142782 
L 389.25 -491.529449 
L 389.257404 -487.916116 
L 389.25 -484.302783 
L 389.25 -480.68945 
L 389.25 -477.076117 
L 389.25 -473.462784 
L 389.250002 -469.849451 
L 389.25 -466.236118 
L 389.257439 -462.622785 
L 391.766383 -459.009452 
L 400.676895 -455.396119 
L 389.25 -451.782786 
L 389.250001 -448.169453 
L 405.071999 -444.55612 
L 405.016409 -440.942787 
L 389.25 -437.329454 
L 389.367946 -433.716121 
L 389.250071 -430.102788 
L 417.661385 -426.489455 
L 389.25 -422.876122 
L 417.464011 -419.262789 
L 389.701952 -415.649456 
L 404.480351 -412.036123 
L 389.406434 -408.42279 
L 389.261289 -404.809457 
L 389.852282 -401.196124 
L 389.25 -397.582791 
L 395.580345 -393.969458 
L 389.767767 -390.356125 
L 389.25 -386.742792 
L 389.25 -383.129459 
L 389.25 -379.516126 
L 389.25 -375.902793 
L 389.25 -372.28946 
L 389.25 -368.676127 
L 389.25 -365.062794 
L 391.871061 -361.449461 
L 389.25 -357.836128 
L 389.25 -354.222795 
L 389.25 -350.609462 
L 389.25 -346.996129 
L 389.25 -343.382797 
L 389.25 -339.769464 
L 389.25 -336.156131 
L 389.25 -332.542798 
L 389.25 -328.929465 
L 389.25 -325.316132 
L 389.25 -321.702799 
L 389.25 -318.089466 
L 389.25 -314.476133 
L 389.25 -310.8628 
L 389.25 -307.249467 
L 389.25 -303.636134 
L 389.25 -300.022801 
L 389.25 -296.409468 
L 389.25 -292.796135 
L 389.25 -289.182802 
L 389.25 -285.569469 
L 389.25 -281.956136 
L 389.25 -278.342803 
L 389.25 -274.72947 
L 389.25 -271.116137 
L 389.25 -267.502804 
L 389.25 -263.889471 
L 389.25 -260.276138 
L 389.25 -256.662805 
L 389.25 -253.049472 
L 389.25 -249.436139 
L 389.25 -245.822806 
L 389.25 -242.209473 
L 389.25 -238.59614 
L 389.25 -234.982807 
L 389.25 -231.369474 
L 389.25 -227.756141 
L 389.25 -224.142808 
L 389.25 -220.529475 
L 389.25 -216.916142 
L 389.25 -213.302809 
L 389.25 -209.689476 
L 389.25 -206.076143 
L 391.38396 -202.46281 
z
" id="m93549d6d13" style="stroke:#3d3d3d;stroke-width:1.5;"/>
    </defs>
    <g clip-path="url(#p0d5eb9637f)">
     <use style="fill:#e1812c;stroke:#3d3d3d;stroke-width:1.5;" x="0" xlink:href="#m93549d6d13" y="1440"/>
    </g>
   </g>
   <g id="PolyCollection_3">
    <defs>
     <path d="M 537.902244 -223.853378 
L 519.597756 -223.853378 
L 528.75 -227.188621 
L 528.75 -230.523864 
L 528.75 -233.859107 
L 528.75 -237.19435 
L 528.75 -240.529593 
L 528.75 -243.864836 
L 528.75 -247.200079 
L 528.75 -250.535322 
L 528.75 -253.870565 
L 528.75 -257.205808 
L 528.75 -260.541051 
L 528.75 -263.876294 
L 528.75 -267.211537 
L 528.75 -270.546781 
L 528.75 -273.882024 
L 528.75 -277.217267 
L 528.75 -280.55251 
L 528.75 -283.887753 
L 528.75 -287.222996 
L 528.75 -290.558239 
L 528.75 -293.893482 
L 528.75 -297.228725 
L 528.75 -300.563968 
L 528.75 -303.899211 
L 528.75 -307.234454 
L 528.75 -310.569697 
L 528.75 -313.90494 
L 528.75 -317.240183 
L 528.75 -320.575426 
L 528.75 -323.910669 
L 528.75 -327.245913 
L 528.75 -330.581156 
L 528.75 -333.916399 
L 528.75 -337.251642 
L 528.75 -340.586885 
L 528.75 -343.922128 
L 528.75 -347.257371 
L 528.75 -350.592614 
L 528.75 -353.927857 
L 528.75 -357.2631 
L 528.75 -360.598343 
L 528.75 -363.933586 
L 528.75 -367.268829 
L 508.148238 -370.604072 
L 528.7242 -373.939315 
L 528.712156 -377.274558 
L 528.75 -380.609801 
L 528.291748 -383.945044 
L 528.75 -387.280288 
L 528.75 -390.615531 
L 528.75 -393.950774 
L 528.75 -397.286017 
L 528.749982 -400.62126 
L 495.478274 -403.956503 
L 494.35888 -407.291746 
L 501.126638 -410.626989 
L 495.875837 -413.962232 
L 496.797473 -417.297475 
L 528.614468 -420.632718 
L 528.74992 -423.967961 
L 528.555109 -427.303204 
L 524.917726 -430.638447 
L 509.028892 -433.97369 
L 528.18861 -437.308933 
L 528.75 -440.644176 
L 528.749995 -443.97942 
L 523.404591 -447.314663 
L 528.75 -450.649906 
L 496.685673 -453.985149 
L 528.75 -457.320392 
L 525.561312 -460.655635 
L 528.41141 -463.990878 
L 498.059692 -467.326121 
L 507.401289 -470.661364 
L 528.75 -473.996607 
L 528.75 -477.33185 
L 528.75 -480.667093 
L 497.009552 -484.002336 
L 528.75 -487.337579 
L 528.506486 -490.672822 
L 528.75 -494.008065 
L 528.75 -497.343308 
L 528.75 -500.678551 
L 528.75 -504.013795 
L 528.75 -507.349038 
L 528.75 -510.684281 
L 528.75 -514.019524 
L 528.75 -517.354767 
L 528.75 -520.69001 
L 528.75 -524.025253 
L 528.75 -527.360496 
L 528.75 -530.695739 
L 528.75 -534.030982 
L 528.75 -537.366225 
L 528.75 -540.701468 
L 528.75 -544.036711 
L 528.75 -547.371954 
L 528.75 -550.707197 
L 524.173878 -554.04244 
L 533.326122 -554.04244 
L 533.326122 -554.04244 
L 528.75 -550.707197 
L 528.75 -547.371954 
L 528.75 -544.036711 
L 528.75 -540.701468 
L 528.75 -537.366225 
L 528.75 -534.030982 
L 528.75 -530.695739 
L 528.75 -527.360496 
L 528.75 -524.025253 
L 528.75 -520.69001 
L 528.75 -517.354767 
L 528.75 -514.019524 
L 528.75 -510.684281 
L 528.75 -507.349038 
L 528.75 -504.013795 
L 528.75 -500.678551 
L 528.75 -497.343308 
L 528.75 -494.008065 
L 528.993514 -490.672822 
L 528.75 -487.337579 
L 560.490448 -484.002336 
L 528.75 -480.667093 
L 528.75 -477.33185 
L 528.75 -473.996607 
L 550.098711 -470.661364 
L 559.440308 -467.326121 
L 529.08859 -463.990878 
L 531.938688 -460.655635 
L 528.75 -457.320392 
L 560.814327 -453.985149 
L 528.75 -450.649906 
L 534.095409 -447.314663 
L 528.750005 -443.97942 
L 528.75 -440.644176 
L 529.31139 -437.308933 
L 548.471108 -433.97369 
L 532.582274 -430.638447 
L 528.944891 -427.303204 
L 528.75008 -423.967961 
L 528.885532 -420.632718 
L 560.702527 -417.297475 
L 561.624163 -413.962232 
L 556.373362 -410.626989 
L 563.14112 -407.291746 
L 562.021726 -403.956503 
L 528.750018 -400.62126 
L 528.75 -397.286017 
L 528.75 -393.950774 
L 528.75 -390.615531 
L 528.75 -387.280288 
L 529.208252 -383.945044 
L 528.75 -380.609801 
L 528.787844 -377.274558 
L 528.7758 -373.939315 
L 549.351762 -370.604072 
L 528.75 -367.268829 
L 528.75 -363.933586 
L 528.75 -360.598343 
L 528.75 -357.2631 
L 528.75 -353.927857 
L 528.75 -350.592614 
L 528.75 -347.257371 
L 528.75 -343.922128 
L 528.75 -340.586885 
L 528.75 -337.251642 
L 528.75 -333.916399 
L 528.75 -330.581156 
L 528.75 -327.245913 
L 528.75 -323.910669 
L 528.75 -320.575426 
L 528.75 -317.240183 
L 528.75 -313.90494 
L 528.75 -310.569697 
L 528.75 -307.234454 
L 528.75 -303.899211 
L 528.75 -300.563968 
L 528.75 -297.228725 
L 528.75 -293.893482 
L 528.75 -290.558239 
L 528.75 -287.222996 
L 528.75 -283.887753 
L 528.75 -280.55251 
L 528.75 -277.217267 
L 528.75 -273.882024 
L 528.75 -270.546781 
L 528.75 -267.211537 
L 528.75 -263.876294 
L 528.75 -260.541051 
L 528.75 -257.205808 
L 528.75 -253.870565 
L 528.75 -250.535322 
L 528.75 -247.200079 
L 528.75 -243.864836 
L 528.75 -240.529593 
L 528.75 -237.19435 
L 528.75 -233.859107 
L 528.75 -230.523864 
L 528.75 -227.188621 
L 537.902244 -223.853378 
z
" id="m9f8e57ad9a" style="stroke:#3d3d3d;stroke-width:1.5;"/>
    </defs>
    <g clip-path="url(#p0d5eb9637f)">
     <use style="fill:#3a923a;stroke:#3d3d3d;stroke-width:1.5;" x="0" xlink:href="#m9f8e57ad9a" y="1440"/>
    </g>
   </g>
   <g id="PolyCollection_4">
    <defs>
     <path d="M 671.078586 -288.615808 
L 665.421414 -288.615808 
L 668.25 -291.334863 
L 668.25 -294.053918 
L 668.25 -296.772973 
L 668.25 -299.492028 
L 668.25 -302.211082 
L 668.25 -304.930137 
L 668.25 -307.649192 
L 668.25 -310.368247 
L 668.25 -313.087301 
L 668.25 -315.806356 
L 668.25 -318.525411 
L 668.25 -321.244466 
L 668.25 -323.963521 
L 668.25 -326.682575 
L 668.25 -329.40163 
L 668.25 -332.120685 
L 668.25 -334.83974 
L 668.25 -337.558794 
L 668.25 -340.277849 
L 668.25 -342.996904 
L 668.25 -345.715959 
L 668.25 -348.435013 
L 668.25 -351.154068 
L 658.314886 -353.873123 
L 668.25 -356.592178 
L 668.25 -359.311233 
L 668.25 -362.030287 
L 668.248306 -364.749342 
L 668.25 -367.468397 
L 668.25 -370.187452 
L 668.249983 -372.906506 
L 668.25 -375.625561 
L 668.25 -378.344616 
L 668.25 -381.063671 
L 668.25 -383.782726 
L 668.25 -386.50178 
L 668.242121 -389.220835 
L 668.134419 -391.93989 
L 649.342447 -394.658945 
L 668.25 -397.377999 
L 668.25 -400.097054 
L 665.172391 -402.816109 
L 668.249203 -405.535164 
L 659.011092 -408.254219 
L 668.25 -410.973273 
L 668.070553 -413.692328 
L 633.706076 -416.411383 
L 647.90767 -419.130438 
L 659.900509 -421.849492 
L 665.192063 -424.568547 
L 666.307002 -427.287602 
L 668.24803 -430.006657 
L 648.031673 -432.725711 
L 664.186956 -435.444766 
L 664.920138 -438.163821 
L 667.950743 -440.882876 
L 668.25 -443.601931 
L 648.090887 -446.320985 
L 668.155541 -449.04004 
L 654.319236 -451.759095 
L 668.25 -454.47815 
L 668.249984 -457.197204 
L 668.071825 -459.916259 
L 668.25 -462.635314 
L 668.25 -465.354369 
L 655.971715 -468.073424 
L 668.25 -470.792478 
L 649.431756 -473.511533 
L 668.25 -476.230588 
L 668.25 -478.949643 
L 668.25 -481.668697 
L 668.020273 -484.387752 
L 659.849171 -487.106807 
L 668.25 -489.825862 
L 668.25 -492.544917 
L 665.375171 -495.263971 
L 668.25 -497.983026 
L 668.25 -500.702081 
L 668.25 -503.421136 
L 668.25 -506.14019 
L 668.25 -508.859245 
L 668.25 -511.5783 
L 668.25 -514.297355 
L 668.25 -517.016409 
L 668.25 -519.735464 
L 668.25 -522.454519 
L 668.25 -525.173574 
L 667.09011 -527.892629 
L 668.25 -530.611683 
L 668.25 -533.330738 
L 668.25 -536.049793 
L 668.25 -538.768848 
L 668.25 -541.487902 
L 668.25 -544.206957 
L 668.25 -546.926012 
L 668.25 -549.645067 
L 668.25 -552.364122 
L 668.25 -555.083176 
L 665.421414 -557.802231 
L 671.078586 -557.802231 
L 671.078586 -557.802231 
L 668.25 -555.083176 
L 668.25 -552.364122 
L 668.25 -549.645067 
L 668.25 -546.926012 
L 668.25 -544.206957 
L 668.25 -541.487902 
L 668.25 -538.768848 
L 668.25 -536.049793 
L 668.25 -533.330738 
L 668.25 -530.611683 
L 669.40989 -527.892629 
L 668.25 -525.173574 
L 668.25 -522.454519 
L 668.25 -519.735464 
L 668.25 -517.016409 
L 668.25 -514.297355 
L 668.25 -511.5783 
L 668.25 -508.859245 
L 668.25 -506.14019 
L 668.25 -503.421136 
L 668.25 -500.702081 
L 668.25 -497.983026 
L 671.124829 -495.263971 
L 668.25 -492.544917 
L 668.25 -489.825862 
L 676.650829 -487.106807 
L 668.479727 -484.387752 
L 668.25 -481.668697 
L 668.25 -478.949643 
L 668.25 -476.230588 
L 687.068244 -473.511533 
L 668.25 -470.792478 
L 680.528285 -468.073424 
L 668.25 -465.354369 
L 668.25 -462.635314 
L 668.428175 -459.916259 
L 668.250016 -457.197204 
L 668.25 -454.47815 
L 682.180764 -451.759095 
L 668.344459 -449.04004 
L 688.409113 -446.320985 
L 668.25 -443.601931 
L 668.549257 -440.882876 
L 671.579862 -438.163821 
L 672.313044 -435.444766 
L 688.468327 -432.725711 
L 668.25197 -430.006657 
L 670.192998 -427.287602 
L 671.307937 -424.568547 
L 676.599491 -421.849492 
L 688.59233 -419.130438 
L 702.793924 -416.411383 
L 668.429447 -413.692328 
L 668.25 -410.973273 
L 677.488908 -408.254219 
L 668.250797 -405.535164 
L 671.327609 -402.816109 
L 668.25 -400.097054 
L 668.25 -397.377999 
L 687.157553 -394.658945 
L 668.365581 -391.93989 
L 668.257879 -389.220835 
L 668.25 -386.50178 
L 668.25 -383.782726 
L 668.25 -381.063671 
L 668.25 -378.344616 
L 668.25 -375.625561 
L 668.250017 -372.906506 
L 668.25 -370.187452 
L 668.25 -367.468397 
L 668.251694 -364.749342 
L 668.25 -362.030287 
L 668.25 -359.311233 
L 668.25 -356.592178 
L 678.185114 -353.873123 
L 668.25 -351.154068 
L 668.25 -348.435013 
L 668.25 -345.715959 
L 668.25 -342.996904 
L 668.25 -340.277849 
L 668.25 -337.558794 
L 668.25 -334.83974 
L 668.25 -332.120685 
L 668.25 -329.40163 
L 668.25 -326.682575 
L 668.25 -323.963521 
L 668.25 -321.244466 
L 668.25 -318.525411 
L 668.25 -315.806356 
L 668.25 -313.087301 
L 668.25 -310.368247 
L 668.25 -307.649192 
L 668.25 -304.930137 
L 668.25 -302.211082 
L 668.25 -299.492028 
L 668.25 -296.772973 
L 668.25 -294.053918 
L 668.25 -291.334863 
L 671.078586 -288.615808 
z
" id="mae61c8afa4" style="stroke:#3d3d3d;stroke-width:1.5;"/>
    </defs>
    <g clip-path="url(#p0d5eb9637f)">
     <use style="fill:#c03d3e;stroke:#3d3d3d;stroke-width:1.5;" x="0" xlink:href="#mae61c8afa4" y="1440"/>
    </g>
   </g>
   <g id="PolyCollection_5">
    <defs>
     <path d="M 813.875552 -238.468984 
L 801.624448 -238.468984 
L 807.75 -242.643227 
L 807.75 -246.817469 
L 807.75 -250.991712 
L 807.75 -255.165955 
L 807.75 -259.340197 
L 807.75 -263.51444 
L 807.75 -267.688683 
L 807.75 -271.862925 
L 807.75 -276.037168 
L 807.75 -280.211411 
L 807.75 -284.385653 
L 807.75 -288.559896 
L 807.75 -292.734139 
L 807.75 -296.908381 
L 807.75 -301.082624 
L 807.75 -305.256867 
L 807.75 -309.431109 
L 807.749996 -313.605352 
L 807.75 -317.779595 
L 807.75 -321.953837 
L 807.75 -326.12808 
L 807.75 -330.302323 
L 807.75 -334.476565 
L 807.75 -338.650808 
L 807.75 -342.825051 
L 807.701128 -346.999293 
L 807.75 -351.173536 
L 807.75 -355.347779 
L 807.75 -359.522022 
L 795.739078 -363.696264 
L 807.75 -367.870507 
L 807.75 -372.04475 
L 807.75 -376.218992 
L 778.083867 -380.393235 
L 807.747927 -384.567478 
L 807.730457 -388.74172 
L 807.378676 -392.915963 
L 807.629235 -397.090206 
L 807.749999 -401.264448 
L 783.872458 -405.438691 
L 765.807898 -409.612934 
L 789.74475 -413.787176 
L 805.89361 -417.961419 
L 751.212465 -422.135662 
L 765.285508 -426.309904 
L 807.733901 -430.484147 
L 807.748009 -434.65839 
L 795.10518 -438.832632 
L 807.75 -443.006875 
L 751.999664 -447.181118 
L 762.488362 -451.35536 
L 779.857902 -455.529603 
L 768.017053 -459.703846 
L 807.28408 -463.878088 
L 807.75 -468.052331 
L 800.937864 -472.226574 
L 807.75 -476.400816 
L 807.75 -480.575059 
L 807.75 -484.749302 
L 807.75 -488.923544 
L 807.75 -493.097787 
L 807.75 -497.27203 
L 807.75 -501.446272 
L 807.75 -505.620515 
L 807.75 -509.794758 
L 807.75 -513.969 
L 807.75 -518.143243 
L 807.75 -522.317486 
L 807.75 -526.491728 
L 801.85742 -530.665971 
L 807.75 -534.840214 
L 807.75 -539.014456 
L 807.75 -543.188699 
L 807.75 -547.362942 
L 807.75 -551.537184 
L 807.75 -555.711427 
L 807.75 -559.88567 
L 807.75 -564.059912 
L 807.75 -568.234155 
L 807.75 -572.408398 
L 807.75 -576.58264 
L 807.75 -580.756883 
L 807.75 -584.931126 
L 807.75 -589.105368 
L 807.75 -593.279611 
L 807.75 -597.453854 
L 807.75 -601.628096 
L 807.75 -605.802339 
L 807.75 -609.976582 
L 807.75 -614.150824 
L 807.75 -618.325067 
L 807.75 -622.49931 
L 807.75 -626.673552 
L 807.75 -630.847795 
L 807.75 -635.022038 
L 807.75 -639.19628 
L 807.75 -643.370523 
L 807.75 -647.544766 
L 801.624448 -651.719008 
L 813.875552 -651.719008 
L 813.875552 -651.719008 
L 807.75 -647.544766 
L 807.75 -643.370523 
L 807.75 -639.19628 
L 807.75 -635.022038 
L 807.75 -630.847795 
L 807.75 -626.673552 
L 807.75 -622.49931 
L 807.75 -618.325067 
L 807.75 -614.150824 
L 807.75 -609.976582 
L 807.75 -605.802339 
L 807.75 -601.628096 
L 807.75 -597.453854 
L 807.75 -593.279611 
L 807.75 -589.105368 
L 807.75 -584.931126 
L 807.75 -580.756883 
L 807.75 -576.58264 
L 807.75 -572.408398 
L 807.75 -568.234155 
L 807.75 -564.059912 
L 807.75 -559.88567 
L 807.75 -555.711427 
L 807.75 -551.537184 
L 807.75 -547.362942 
L 807.75 -543.188699 
L 807.75 -539.014456 
L 807.75 -534.840214 
L 813.64258 -530.665971 
L 807.75 -526.491728 
L 807.75 -522.317486 
L 807.75 -518.143243 
L 807.75 -513.969 
L 807.75 -509.794758 
L 807.75 -505.620515 
L 807.75 -501.446272 
L 807.75 -497.27203 
L 807.75 -493.097787 
L 807.75 -488.923544 
L 807.75 -484.749302 
L 807.75 -480.575059 
L 807.75 -476.400816 
L 814.562136 -472.226574 
L 807.75 -468.052331 
L 808.21592 -463.878088 
L 847.482947 -459.703846 
L 835.642098 -455.529603 
L 853.011638 -451.35536 
L 863.500336 -447.181118 
L 807.75 -443.006875 
L 820.39482 -438.832632 
L 807.751991 -434.65839 
L 807.766099 -430.484147 
L 850.214492 -426.309904 
L 864.287535 -422.135662 
L 809.60639 -417.961419 
L 825.75525 -413.787176 
L 849.692102 -409.612934 
L 831.627542 -405.438691 
L 807.750001 -401.264448 
L 807.870765 -397.090206 
L 808.121324 -392.915963 
L 807.769543 -388.74172 
L 807.752073 -384.567478 
L 837.416133 -380.393235 
L 807.75 -376.218992 
L 807.75 -372.04475 
L 807.75 -367.870507 
L 819.760922 -363.696264 
L 807.75 -359.522022 
L 807.75 -355.347779 
L 807.75 -351.173536 
L 807.798872 -346.999293 
L 807.75 -342.825051 
L 807.75 -338.650808 
L 807.75 -334.476565 
L 807.75 -330.302323 
L 807.75 -326.12808 
L 807.75 -321.953837 
L 807.75 -317.779595 
L 807.750004 -313.605352 
L 807.75 -309.431109 
L 807.75 -305.256867 
L 807.75 -301.082624 
L 807.75 -296.908381 
L 807.75 -292.734139 
L 807.75 -288.559896 
L 807.75 -284.385653 
L 807.75 -280.211411 
L 807.75 -276.037168 
L 807.75 -271.862925 
L 807.75 -267.688683 
L 807.75 -263.51444 
L 807.75 -259.340197 
L 807.75 -255.165955 
L 807.75 -250.991712 
L 807.75 -246.817469 
L 807.75 -242.643227 
L 813.875552 -238.468984 
z
" id="m3bdb738314" style="stroke:#3d3d3d;stroke-width:1.5;"/>
    </defs>
    <g clip-path="url(#p0d5eb9637f)">
     <use style="fill:#9372b2;stroke:#3d3d3d;stroke-width:1.5;" x="0" xlink:href="#m3bdb738314" y="1440"/>
    </g>
   </g>
   <g id="PolyCollection_6">
    <defs>
     <path d="M 950.001375 -288.115432 
L 944.498625 -288.115432 
L 947.25 -291.07113 
L 947.25 -294.026829 
L 947.25 -296.982527 
L 947.25 -299.938226 
L 947.25 -302.893924 
L 947.25 -305.849622 
L 947.25 -308.805321 
L 947.25 -311.761019 
L 947.25 -314.716718 
L 947.25 -317.672416 
L 947.25 -320.628114 
L 947.25 -323.583813 
L 947.25 -326.539511 
L 947.25 -329.49521 
L 947.25 -332.450908 
L 947.25 -335.406606 
L 947.25 -338.362305 
L 947.25 -341.318003 
L 947.25 -344.273702 
L 947.25 -347.2294 
L 947.25 -350.185098 
L 947.25 -353.140797 
L 947.25 -356.096495 
L 944.34908 -359.052194 
L 947.25 -362.007892 
L 947.25 -364.96359 
L 947.25 -367.919289 
L 947.25 -370.874987 
L 929.366876 -373.830685 
L 947.25 -376.786384 
L 931.751337 -379.742082 
L 929.765806 -382.697781 
L 947.048346 -385.653479 
L 936.941354 -388.609177 
L 947.25 -391.564876 
L 944.51485 -394.520574 
L 918.502573 -397.476273 
L 947.25 -400.431971 
L 943.055216 -403.387669 
L 947.25 -406.343368 
L 947.248876 -409.299066 
L 946.272706 -412.254765 
L 947.187022 -415.210463 
L 925.713145 -418.166161 
L 918.47936 -421.12186 
L 913.43575 -424.077558 
L 927.1228 -427.033257 
L 947.246562 -429.988955 
L 947.25 -432.944653 
L 906.848583 -435.900352 
L 947.25 -438.85605 
L 933.281974 -441.811749 
L 931.134547 -444.767447 
L 947.25 -447.723145 
L 947.206501 -450.678844 
L 944.317578 -453.634542 
L 947.25 -456.590241 
L 947.25 -459.545939 
L 947.25 -462.501637 
L 917.18182 -465.457336 
L 938.847167 -468.413034 
L 947.247482 -471.368733 
L 947.249902 -474.324431 
L 947.25 -477.280129 
L 947.25 -480.235828 
L 947.25 -483.191526 
L 947.25 -486.147225 
L 947.249907 -489.102923 
L 947.25 -492.058621 
L 947.25 -495.01432 
L 947.25 -497.970018 
L 947.25 -500.925716 
L 947.25 -503.881415 
L 947.25 -506.837113 
L 947.25 -509.792812 
L 947.25 -512.74851 
L 947.25 -515.704208 
L 947.25 -518.659907 
L 947.249955 -521.615605 
L 947.25 -524.571304 
L 947.25 -527.527002 
L 947.25 -530.4827 
L 947.25 -533.438399 
L 947.25 -536.394097 
L 947.25 -539.349796 
L 947.25 -542.305494 
L 947.25 -545.261192 
L 947.25 -548.216891 
L 947.25 -551.172589 
L 947.25 -554.128288 
L 947.25 -557.083986 
L 947.25 -560.039684 
L 947.25 -562.995383 
L 947.25 -565.951081 
L 947.25 -568.90678 
L 947.25 -571.862478 
L 947.25 -574.818176 
L 947.25 -577.773875 
L 944.498625 -580.729573 
L 950.001375 -580.729573 
L 950.001375 -580.729573 
L 947.25 -577.773875 
L 947.25 -574.818176 
L 947.25 -571.862478 
L 947.25 -568.90678 
L 947.25 -565.951081 
L 947.25 -562.995383 
L 947.25 -560.039684 
L 947.25 -557.083986 
L 947.25 -554.128288 
L 947.25 -551.172589 
L 947.25 -548.216891 
L 947.25 -545.261192 
L 947.25 -542.305494 
L 947.25 -539.349796 
L 947.25 -536.394097 
L 947.25 -533.438399 
L 947.25 -530.4827 
L 947.25 -527.527002 
L 947.25 -524.571304 
L 947.250045 -521.615605 
L 947.25 -518.659907 
L 947.25 -515.704208 
L 947.25 -512.74851 
L 947.25 -509.792812 
L 947.25 -506.837113 
L 947.25 -503.881415 
L 947.25 -500.925716 
L 947.25 -497.970018 
L 947.25 -495.01432 
L 947.25 -492.058621 
L 947.250093 -489.102923 
L 947.25 -486.147225 
L 947.25 -483.191526 
L 947.25 -480.235828 
L 947.25 -477.280129 
L 947.250098 -474.324431 
L 947.252518 -471.368733 
L 955.652833 -468.413034 
L 977.31818 -465.457336 
L 947.25 -462.501637 
L 947.25 -459.545939 
L 947.25 -456.590241 
L 950.182422 -453.634542 
L 947.293499 -450.678844 
L 947.25 -447.723145 
L 963.365453 -444.767447 
L 961.218026 -441.811749 
L 947.25 -438.85605 
L 987.651417 -435.900352 
L 947.25 -432.944653 
L 947.253438 -429.988955 
L 967.3772 -427.033257 
L 981.06425 -424.077558 
L 976.02064 -421.12186 
L 968.786855 -418.166161 
L 947.312978 -415.210463 
L 948.227294 -412.254765 
L 947.251124 -409.299066 
L 947.25 -406.343368 
L 951.444784 -403.387669 
L 947.25 -400.431971 
L 975.997427 -397.476273 
L 949.98515 -394.520574 
L 947.25 -391.564876 
L 957.558646 -388.609177 
L 947.451654 -385.653479 
L 964.734194 -382.697781 
L 962.748663 -379.742082 
L 947.25 -376.786384 
L 965.133124 -373.830685 
L 947.25 -370.874987 
L 947.25 -367.919289 
L 947.25 -364.96359 
L 947.25 -362.007892 
L 950.15092 -359.052194 
L 947.25 -356.096495 
L 947.25 -353.140797 
L 947.25 -350.185098 
L 947.25 -347.2294 
L 947.25 -344.273702 
L 947.25 -341.318003 
L 947.25 -338.362305 
L 947.25 -335.406606 
L 947.25 -332.450908 
L 947.25 -329.49521 
L 947.25 -326.539511 
L 947.25 -323.583813 
L 947.25 -320.628114 
L 947.25 -317.672416 
L 947.25 -314.716718 
L 947.25 -311.761019 
L 947.25 -308.805321 
L 947.25 -305.849622 
L 947.25 -302.893924 
L 947.25 -299.938226 
L 947.25 -296.982527 
L 947.25 -294.026829 
L 947.25 -291.07113 
L 950.001375 -288.115432 
z
" id="m3342a1ee93" style="stroke:#3d3d3d;stroke-width:1.5;"/>
    </defs>
    <g clip-path="url(#p0d5eb9637f)">
     <use style="fill:#845b53;stroke:#3d3d3d;stroke-width:1.5;" x="0" xlink:href="#m3342a1ee93" y="1440"/>
    </g>
   </g>
   <g id="PolyCollection_7">
    <defs>
     <path d="M 1088.964782 -271.946437 
L 1084.535218 -271.946437 
L 1086.75 -274.671619 
L 1086.75 -277.396801 
L 1086.75 -280.121984 
L 1086.75 -282.847166 
L 1086.75 -285.572348 
L 1086.75 -288.29753 
L 1086.75 -291.022712 
L 1086.75 -293.747894 
L 1086.75 -296.473077 
L 1086.75 -299.198259 
L 1086.75 -301.923441 
L 1086.75 -304.648623 
L 1086.75 -307.373805 
L 1086.75 -310.098988 
L 1086.75 -312.82417 
L 1086.75 -315.549352 
L 1086.75 -318.274534 
L 1086.75 -320.999716 
L 1086.75 -323.724898 
L 1086.75 -326.450081 
L 1086.75 -329.175263 
L 1086.75 -331.900445 
L 1086.75 -334.625627 
L 1086.75 -337.350809 
L 1086.75 -340.075991 
L 1086.75 -342.801174 
L 1086.75 -345.526356 
L 1086.75 -348.251538 
L 1086.75 -350.97672 
L 1086.75 -353.701902 
L 1086.75 -356.427085 
L 1086.75 -359.152267 
L 1086.75 -361.877449 
L 1086.75 -364.602631 
L 1086.75 -367.327813 
L 1086.75 -370.052995 
L 1086.75 -372.778178 
L 1086.75 -375.50336 
L 1086.75 -378.228542 
L 1082.705784 -380.953724 
L 1086.713441 -383.678906 
L 1086.75 -386.404089 
L 1086.75 -389.129271 
L 1086.748398 -391.854453 
L 1086.75 -394.579635 
L 1085.463921 -397.304817 
L 1086.75 -400.029999 
L 1086.75 -402.755182 
L 1086.75 -405.480364 
L 1086.75 -408.205546 
L 1086.75 -410.930728 
L 1086.75 -413.65591 
L 1086.75 -416.381092 
L 1086.75 -419.106275 
L 1086.75 -421.831457 
L 1086.75 -424.556639 
L 1086.75 -427.281821 
L 1086.75 -430.007003 
L 1086.75 -432.732186 
L 1086.75 -435.457368 
L 1086.75 -438.18255 
L 1086.545274 -440.907732 
L 1086.734004 -443.632914 
L 1086.75 -446.358096 
L 1086.75 -449.083279 
L 1086.75 -451.808461 
L 1086.75 -454.533643 
L 1086.75 -457.258825 
L 1086.75 -459.984007 
L 1086.75 -462.70919 
L 1086.749145 -465.434372 
L 1086.75 -468.159554 
L 1085.056095 -470.884736 
L 1086.75 -473.609918 
L 1086.75 -476.3351 
L 1086.75 -479.060283 
L 1086.75 -481.785465 
L 1086.75 -484.510647 
L 1086.75 -487.235829 
L 1086.75 -489.961011 
L 1086.75 -492.686193 
L 1086.75 -495.411376 
L 1086.75 -498.136558 
L 1086.75 -500.86174 
L 1086.75 -503.586922 
L 1086.75 -506.312104 
L 1086.75 -509.037287 
L 1086.75 -511.762469 
L 1086.75 -514.487651 
L 1086.75 -517.212833 
L 1086.75 -519.938015 
L 1086.75 -522.663197 
L 1086.75 -525.38838 
L 1086.75 -528.113562 
L 1086.75 -530.838744 
L 1086.75 -533.563926 
L 1086.75 -536.289108 
L 1086.75 -539.01429 
L 1084.535218 -541.739473 
L 1088.964782 -541.739473 
L 1088.964782 -541.739473 
L 1086.75 -539.01429 
L 1086.75 -536.289108 
L 1086.75 -533.563926 
L 1086.75 -530.838744 
L 1086.75 -528.113562 
L 1086.75 -525.38838 
L 1086.75 -522.663197 
L 1086.75 -519.938015 
L 1086.75 -517.212833 
L 1086.75 -514.487651 
L 1086.75 -511.762469 
L 1086.75 -509.037287 
L 1086.75 -506.312104 
L 1086.75 -503.586922 
L 1086.75 -500.86174 
L 1086.75 -498.136558 
L 1086.75 -495.411376 
L 1086.75 -492.686193 
L 1086.75 -489.961011 
L 1086.75 -487.235829 
L 1086.75 -484.510647 
L 1086.75 -481.785465 
L 1086.75 -479.060283 
L 1086.75 -476.3351 
L 1086.75 -473.609918 
L 1088.443905 -470.884736 
L 1086.75 -468.159554 
L 1086.750855 -465.434372 
L 1086.75 -462.70919 
L 1086.75 -459.984007 
L 1086.75 -457.258825 
L 1086.75 -454.533643 
L 1086.75 -451.808461 
L 1086.75 -449.083279 
L 1086.75 -446.358096 
L 1086.765996 -443.632914 
L 1086.954726 -440.907732 
L 1086.75 -438.18255 
L 1086.75 -435.457368 
L 1086.75 -432.732186 
L 1086.75 -430.007003 
L 1086.75 -427.281821 
L 1086.75 -424.556639 
L 1086.75 -421.831457 
L 1086.75 -419.106275 
L 1086.75 -416.381092 
L 1086.75 -413.65591 
L 1086.75 -410.930728 
L 1086.75 -408.205546 
L 1086.75 -405.480364 
L 1086.75 -402.755182 
L 1086.75 -400.029999 
L 1088.036079 -397.304817 
L 1086.75 -394.579635 
L 1086.751602 -391.854453 
L 1086.75 -389.129271 
L 1086.75 -386.404089 
L 1086.786559 -383.678906 
L 1090.794216 -380.953724 
L 1086.75 -378.228542 
L 1086.75 -375.50336 
L 1086.75 -372.778178 
L 1086.75 -370.052995 
L 1086.75 -367.327813 
L 1086.75 -364.602631 
L 1086.75 -361.877449 
L 1086.75 -359.152267 
L 1086.75 -356.427085 
L 1086.75 -353.701902 
L 1086.75 -350.97672 
L 1086.75 -348.251538 
L 1086.75 -345.526356 
L 1086.75 -342.801174 
L 1086.75 -340.075991 
L 1086.75 -337.350809 
L 1086.75 -334.625627 
L 1086.75 -331.900445 
L 1086.75 -329.175263 
L 1086.75 -326.450081 
L 1086.75 -323.724898 
L 1086.75 -320.999716 
L 1086.75 -318.274534 
L 1086.75 -315.549352 
L 1086.75 -312.82417 
L 1086.75 -310.098988 
L 1086.75 -307.373805 
L 1086.75 -304.648623 
L 1086.75 -301.923441 
L 1086.75 -299.198259 
L 1086.75 -296.473077 
L 1086.75 -293.747894 
L 1086.75 -291.022712 
L 1086.75 -288.29753 
L 1086.75 -285.572348 
L 1086.75 -282.847166 
L 1086.75 -280.121984 
L 1086.75 -277.396801 
L 1086.75 -274.671619 
L 1088.964782 -271.946437 
z
" id="m68b528ab78" style="stroke:#3d3d3d;stroke-width:1.5;"/>
    </defs>
    <g clip-path="url(#p0d5eb9637f)">
     <use style="fill:#d684bd;stroke:#3d3d3d;stroke-width:1.5;" x="0" xlink:href="#m68b528ab78" y="1440"/>
    </g>
   </g>
   <g id="PolyCollection_8">
    <defs>
     <path d="M 1227.95122 -254.060878 
L 1224.54878 -254.060878 
L 1226.25 -256.523802 
L 1226.25 -258.986725 
L 1226.25 -261.449649 
L 1226.25 -263.912573 
L 1226.25 -266.375497 
L 1226.25 -268.83842 
L 1226.25 -271.301344 
L 1226.25 -273.764268 
L 1226.25 -276.227191 
L 1226.25 -278.690115 
L 1226.25 -281.153039 
L 1226.25 -283.615962 
L 1226.25 -286.078886 
L 1226.25 -288.54181 
L 1226.25 -291.004733 
L 1226.25 -293.467657 
L 1226.25 -295.930581 
L 1226.25 -298.393504 
L 1226.25 -300.856428 
L 1226.25 -303.319352 
L 1226.25 -305.782275 
L 1226.25 -308.245199 
L 1226.25 -310.708123 
L 1226.25 -313.171047 
L 1226.25 -315.63397 
L 1226.25 -318.096894 
L 1226.25 -320.559818 
L 1226.25 -323.022741 
L 1226.25 -325.485665 
L 1226.25 -327.948589 
L 1226.25 -330.411512 
L 1226.25 -332.874436 
L 1226.25 -335.33736 
L 1226.25 -337.800283 
L 1226.25 -340.263207 
L 1226.25 -342.726131 
L 1226.25 -345.189054 
L 1226.25 -347.651978 
L 1226.25 -350.114902 
L 1226.25 -352.577826 
L 1226.25 -355.040749 
L 1226.25 -357.503673 
L 1226.25 -359.966597 
L 1226.25 -362.42952 
L 1226.25 -364.892444 
L 1226.25 -367.355368 
L 1226.25 -369.818291 
L 1226.25 -372.281215 
L 1226.25 -374.744139 
L 1226.25 -377.207062 
L 1226.248041 -379.669986 
L 1226.25 -382.13291 
L 1226.25 -384.595833 
L 1226.25 -387.058757 
L 1226.25 -389.521681 
L 1226.25 -391.984605 
L 1226.180338 -394.447528 
L 1226.25 -396.910452 
L 1226.25 -399.373376 
L 1226.25 -401.836299 
L 1226.25 -404.299223 
L 1226.25 -406.762147 
L 1226.25 -409.22507 
L 1226.25 -411.687994 
L 1226.25 -414.150918 
L 1226.25 -416.613841 
L 1226.25 -419.076765 
L 1226.25 -421.539689 
L 1226.25 -424.002612 
L 1226.25 -426.465536 
L 1226.25 -428.92846 
L 1226.25 -431.391384 
L 1226.25 -433.854307 
L 1226.25 -436.317231 
L 1226.25 -438.780155 
L 1226.25 -441.243078 
L 1226.25 -443.706002 
L 1226.25 -446.168926 
L 1226.25 -448.631849 
L 1226.25 -451.094773 
L 1226.25 -453.557697 
L 1226.25 -456.02062 
L 1226.25 -458.483544 
L 1226.25 -460.946468 
L 1226.25 -463.409391 
L 1226.25 -465.872315 
L 1226.25 -468.335239 
L 1226.25 -470.798162 
L 1226.25 -473.261086 
L 1226.25 -475.72401 
L 1226.25 -478.186934 
L 1226.25 -480.649857 
L 1226.25 -483.112781 
L 1226.25 -485.575705 
L 1226.25 -488.038628 
L 1226.25 -490.501552 
L 1226.25 -492.964476 
L 1226.25 -495.427399 
L 1224.54878 -497.890323 
L 1227.95122 -497.890323 
L 1227.95122 -497.890323 
L 1226.25 -495.427399 
L 1226.25 -492.964476 
L 1226.25 -490.501552 
L 1226.25 -488.038628 
L 1226.25 -485.575705 
L 1226.25 -483.112781 
L 1226.25 -480.649857 
L 1226.25 -478.186934 
L 1226.25 -475.72401 
L 1226.25 -473.261086 
L 1226.25 -470.798162 
L 1226.25 -468.335239 
L 1226.25 -465.872315 
L 1226.25 -463.409391 
L 1226.25 -460.946468 
L 1226.25 -458.483544 
L 1226.25 -456.02062 
L 1226.25 -453.557697 
L 1226.25 -451.094773 
L 1226.25 -448.631849 
L 1226.25 -446.168926 
L 1226.25 -443.706002 
L 1226.25 -441.243078 
L 1226.25 -438.780155 
L 1226.25 -436.317231 
L 1226.25 -433.854307 
L 1226.25 -431.391384 
L 1226.25 -428.92846 
L 1226.25 -426.465536 
L 1226.25 -424.002612 
L 1226.25 -421.539689 
L 1226.25 -419.076765 
L 1226.25 -416.613841 
L 1226.25 -414.150918 
L 1226.25 -411.687994 
L 1226.25 -409.22507 
L 1226.25 -406.762147 
L 1226.25 -404.299223 
L 1226.25 -401.836299 
L 1226.25 -399.373376 
L 1226.25 -396.910452 
L 1226.319662 -394.447528 
L 1226.25 -391.984605 
L 1226.25 -389.521681 
L 1226.25 -387.058757 
L 1226.25 -384.595833 
L 1226.25 -382.13291 
L 1226.251959 -379.669986 
L 1226.25 -377.207062 
L 1226.25 -374.744139 
L 1226.25 -372.281215 
L 1226.25 -369.818291 
L 1226.25 -367.355368 
L 1226.25 -364.892444 
L 1226.25 -362.42952 
L 1226.25 -359.966597 
L 1226.25 -357.503673 
L 1226.25 -355.040749 
L 1226.25 -352.577826 
L 1226.25 -350.114902 
L 1226.25 -347.651978 
L 1226.25 -345.189054 
L 1226.25 -342.726131 
L 1226.25 -340.263207 
L 1226.25 -337.800283 
L 1226.25 -335.33736 
L 1226.25 -332.874436 
L 1226.25 -330.411512 
L 1226.25 -327.948589 
L 1226.25 -325.485665 
L 1226.25 -323.022741 
L 1226.25 -320.559818 
L 1226.25 -318.096894 
L 1226.25 -315.63397 
L 1226.25 -313.171047 
L 1226.25 -310.708123 
L 1226.25 -308.245199 
L 1226.25 -305.782275 
L 1226.25 -303.319352 
L 1226.25 -300.856428 
L 1226.25 -298.393504 
L 1226.25 -295.930581 
L 1226.25 -293.467657 
L 1226.25 -291.004733 
L 1226.25 -288.54181 
L 1226.25 -286.078886 
L 1226.25 -283.615962 
L 1226.25 -281.153039 
L 1226.25 -278.690115 
L 1226.25 -276.227191 
L 1226.25 -273.764268 
L 1226.25 -271.301344 
L 1226.25 -268.83842 
L 1226.25 -266.375497 
L 1226.25 -263.912573 
L 1226.25 -261.449649 
L 1226.25 -258.986725 
L 1226.25 -256.523802 
L 1227.95122 -254.060878 
z
" id="m35d877ba53" style="stroke:#3d3d3d;stroke-width:1.5;"/>
    </defs>
    <g clip-path="url(#p0d5eb9637f)">
     <use style="fill:#7f7f7f;stroke:#3d3d3d;stroke-width:1.5;" x="0" xlink:href="#m35d877ba53" y="1440"/>
    </g>
   </g>
   <g id="matplotlib.axis_3">
    <g id="xtick_7">
     <g id="line2d_13">
      <g>
       <use style="stroke:#000000;stroke-width:0.8;" x="249.75" xlink:href="#md91b0ffbc1" y="1260"/>
      </g>
     </g>
     <g id="text_16">
      <!-- other ctx -->
      <defs>
       <path d="M 48.78125 52.59375 
L 48.78125 44.1875 
Q 44.96875 46.296875 41.140625 47.34375 
Q 37.3125 48.390625 33.40625 48.390625 
Q 24.65625 48.390625 19.8125 42.84375 
Q 14.984375 37.3125 14.984375 27.296875 
Q 14.984375 17.28125 19.8125 11.734375 
Q 24.65625 6.203125 33.40625 6.203125 
Q 37.3125 6.203125 41.140625 7.25 
Q 44.96875 8.296875 48.78125 10.40625 
L 48.78125 2.09375 
Q 45.015625 0.34375 40.984375 -0.53125 
Q 36.96875 -1.421875 32.421875 -1.421875 
Q 20.0625 -1.421875 12.78125 6.34375 
Q 5.515625 14.109375 5.515625 27.296875 
Q 5.515625 40.671875 12.859375 48.328125 
Q 20.21875 56 33.015625 56 
Q 37.15625 56 41.109375 55.140625 
Q 45.0625 54.296875 48.78125 52.59375 
z
" id="DejaVuSans-99"/>
      </defs>
      <g transform="translate(209.109375 1280.677187)scale(0.18 -0.18)">
       <use xlink:href="#DejaVuSans-111"/>
       <use x="61.181641" xlink:href="#DejaVuSans-116"/>
       <use x="100.390625" xlink:href="#DejaVuSans-104"/>
       <use x="163.769531" xlink:href="#DejaVuSans-101"/>
       <use x="225.292969" xlink:href="#DejaVuSans-114"/>
       <use x="266.40625" xlink:href="#DejaVuSans-32"/>
       <use x="298.193359" xlink:href="#DejaVuSans-99"/>
       <use x="353.173828" xlink:href="#DejaVuSans-116"/>
       <use x="392.382812" xlink:href="#DejaVuSans-120"/>
      </g>
     </g>
    </g>
    <g id="xtick_8">
     <g id="line2d_14">
      <g>
       <use style="stroke:#000000;stroke-width:0.8;" x="389.25" xlink:href="#md91b0ffbc1" y="1260"/>
      </g>
     </g>
     <g id="text_17">
      <!-- basal ganglia -->
      <defs>
       <path d="M 48.6875 27.296875 
Q 48.6875 37.203125 44.609375 42.84375 
Q 40.53125 48.484375 33.40625 48.484375 
Q 26.265625 48.484375 22.1875 42.84375 
Q 18.109375 37.203125 18.109375 27.296875 
Q 18.109375 17.390625 22.1875 11.75 
Q 26.265625 6.109375 33.40625 6.109375 
Q 40.53125 6.109375 44.609375 11.75 
Q 48.6875 17.390625 48.6875 27.296875 
z
M 18.109375 46.390625 
Q 20.953125 51.265625 25.265625 53.625 
Q 29.59375 56 35.59375 56 
Q 45.5625 56 51.78125 48.09375 
Q 58.015625 40.1875 58.015625 27.296875 
Q 58.015625 14.40625 51.78125 6.484375 
Q 45.5625 -1.421875 35.59375 -1.421875 
Q 29.59375 -1.421875 25.265625 0.953125 
Q 20.953125 3.328125 18.109375 8.203125 
L 18.109375 0 
L 9.078125 0 
L 9.078125 75.984375 
L 18.109375 75.984375 
z
" id="DejaVuSans-98"/>
      </defs>
      <g transform="translate(329.294531 1280.677187)scale(0.18 -0.18)">
       <use xlink:href="#DejaVuSans-98"/>
       <use x="63.476562" xlink:href="#DejaVuSans-97"/>
       <use x="124.755859" xlink:href="#DejaVuSans-115"/>
       <use x="176.855469" xlink:href="#DejaVuSans-97"/>
       <use x="238.134766" xlink:href="#DejaVuSans-108"/>
       <use x="265.917969" xlink:href="#DejaVuSans-32"/>
       <use x="297.705078" xlink:href="#DejaVuSans-103"/>
       <use x="361.181641" xlink:href="#DejaVuSans-97"/>
       <use x="422.460938" xlink:href="#DejaVuSans-110"/>
       <use x="485.839844" xlink:href="#DejaVuSans-103"/>
       <use x="549.316406" xlink:href="#DejaVuSans-108"/>
       <use x="577.099609" xlink:href="#DejaVuSans-105"/>
       <use x="604.882812" xlink:href="#DejaVuSans-97"/>
      </g>
     </g>
    </g>
    <g id="xtick_9">
     <g id="line2d_15">
      <g>
       <use style="stroke:#000000;stroke-width:0.8;" x="528.75" xlink:href="#md91b0ffbc1" y="1260"/>
      </g>
     </g>
     <g id="text_18">
      <!-- vis ctx -->
      <defs>
       <path d="M 2.984375 54.6875 
L 12.5 54.6875 
L 29.59375 8.796875 
L 46.6875 54.6875 
L 56.203125 54.6875 
L 35.6875 0 
L 23.484375 0 
z
" id="DejaVuSans-118"/>
      </defs>
      <g transform="translate(499.570312 1280.677187)scale(0.18 -0.18)">
       <use xlink:href="#DejaVuSans-118"/>
       <use x="59.179688" xlink:href="#DejaVuSans-105"/>
       <use x="86.962891" xlink:href="#DejaVuSans-115"/>
       <use x="139.0625" xlink:href="#DejaVuSans-32"/>
       <use x="170.849609" xlink:href="#DejaVuSans-99"/>
       <use x="225.830078" xlink:href="#DejaVuSans-116"/>
       <use x="265.039062" xlink:href="#DejaVuSans-120"/>
      </g>
     </g>
    </g>
    <g id="xtick_10">
     <g id="line2d_16">
      <g>
       <use style="stroke:#000000;stroke-width:0.8;" x="668.25" xlink:href="#md91b0ffbc1" y="1260"/>
      </g>
     </g>
     <g id="text_19">
      <!-- hipp -->
      <defs>
       <path d="M 18.109375 8.203125 
L 18.109375 -20.796875 
L 9.078125 -20.796875 
L 9.078125 54.6875 
L 18.109375 54.6875 
L 18.109375 46.390625 
Q 20.953125 51.265625 25.265625 53.625 
Q 29.59375 56 35.59375 56 
Q 45.5625 56 51.78125 48.09375 
Q 58.015625 40.1875 58.015625 27.296875 
Q 58.015625 14.40625 51.78125 6.484375 
Q 45.5625 -1.421875 35.59375 -1.421875 
Q 29.59375 -1.421875 25.265625 0.953125 
Q 20.953125 3.328125 18.109375 8.203125 
z
M 48.6875 27.296875 
Q 48.6875 37.203125 44.609375 42.84375 
Q 40.53125 48.484375 33.40625 48.484375 
Q 26.265625 48.484375 22.1875 42.84375 
Q 18.109375 37.203125 18.109375 27.296875 
Q 18.109375 17.390625 22.1875 11.75 
Q 26.265625 6.109375 33.40625 6.109375 
Q 40.53125 6.109375 44.609375 11.75 
Q 48.6875 17.390625 48.6875 27.296875 
z
" id="DejaVuSans-112"/>
      </defs>
      <g transform="translate(648.61875 1280.677187)scale(0.18 -0.18)">
       <use xlink:href="#DejaVuSans-104"/>
       <use x="63.378906" xlink:href="#DejaVuSans-105"/>
       <use x="91.162109" xlink:href="#DejaVuSans-112"/>
       <use x="154.638672" xlink:href="#DejaVuSans-112"/>
      </g>
     </g>
    </g>
    <g id="xtick_11">
     <g id="line2d_17">
      <g>
       <use style="stroke:#000000;stroke-width:0.8;" x="807.75" xlink:href="#md91b0ffbc1" y="1260"/>
      </g>
     </g>
     <g id="text_20">
      <!-- thal -->
      <g transform="translate(790.502344 1280.677187)scale(0.18 -0.18)">
       <use xlink:href="#DejaVuSans-116"/>
       <use x="39.208984" xlink:href="#DejaVuSans-104"/>
       <use x="102.587891" xlink:href="#DejaVuSans-97"/>
       <use x="163.867188" xlink:href="#DejaVuSans-108"/>
      </g>
     </g>
    </g>
    <g id="xtick_12">
     <g id="line2d_18">
      <g>
       <use style="stroke:#000000;stroke-width:0.8;" x="947.25" xlink:href="#md91b0ffbc1" y="1260"/>
      </g>
     </g>
     <g id="text_21">
      <!-- midbrain -->
      <defs>
       <path d="M 52 44.1875 
Q 55.375 50.25 60.0625 53.125 
Q 64.75 56 71.09375 56 
Q 79.640625 56 84.28125 50.015625 
Q 88.921875 44.046875 88.921875 33.015625 
L 88.921875 0 
L 79.890625 0 
L 79.890625 32.71875 
Q 79.890625 40.578125 77.09375 44.375 
Q 74.3125 48.1875 68.609375 48.1875 
Q 61.625 48.1875 57.5625 43.546875 
Q 53.515625 38.921875 53.515625 30.90625 
L 53.515625 0 
L 44.484375 0 
L 44.484375 32.71875 
Q 44.484375 40.625 41.703125 44.40625 
Q 38.921875 48.1875 33.109375 48.1875 
Q 26.21875 48.1875 22.15625 43.53125 
Q 18.109375 38.875 18.109375 30.90625 
L 18.109375 0 
L 9.078125 0 
L 9.078125 54.6875 
L 18.109375 54.6875 
L 18.109375 46.1875 
Q 21.1875 51.21875 25.484375 53.609375 
Q 29.78125 56 35.6875 56 
Q 41.65625 56 45.828125 52.96875 
Q 50 49.953125 52 44.1875 
z
" id="DejaVuSans-109"/>
       <path d="M 45.40625 46.390625 
L 45.40625 75.984375 
L 54.390625 75.984375 
L 54.390625 0 
L 45.40625 0 
L 45.40625 8.203125 
Q 42.578125 3.328125 38.25 0.953125 
Q 33.9375 -1.421875 27.875 -1.421875 
Q 17.96875 -1.421875 11.734375 6.484375 
Q 5.515625 14.40625 5.515625 27.296875 
Q 5.515625 40.1875 11.734375 48.09375 
Q 17.96875 56 27.875 56 
Q 33.9375 56 38.25 53.625 
Q 42.578125 51.265625 45.40625 46.390625 
z
M 14.796875 27.296875 
Q 14.796875 17.390625 18.875 11.75 
Q 22.953125 6.109375 30.078125 6.109375 
Q 37.203125 6.109375 41.296875 11.75 
Q 45.40625 17.390625 45.40625 27.296875 
Q 45.40625 37.203125 41.296875 42.84375 
Q 37.203125 48.484375 30.078125 48.484375 
Q 22.953125 48.484375 18.875 42.84375 
Q 14.796875 37.203125 14.796875 27.296875 
z
" id="DejaVuSans-100"/>
      </defs>
      <g transform="translate(907.136719 1280.677187)scale(0.18 -0.18)">
       <use xlink:href="#DejaVuSans-109"/>
       <use x="97.412109" xlink:href="#DejaVuSans-105"/>
       <use x="125.195312" xlink:href="#DejaVuSans-100"/>
       <use x="188.671875" xlink:href="#DejaVuSans-98"/>
       <use x="252.148438" xlink:href="#DejaVuSans-114"/>
       <use x="293.261719" xlink:href="#DejaVuSans-97"/>
       <use x="354.541016" xlink:href="#DejaVuSans-105"/>
       <use x="382.324219" xlink:href="#DejaVuSans-110"/>
      </g>
     </g>
    </g>
    <g id="xtick_13">
     <g id="line2d_19">
      <g>
       <use style="stroke:#000000;stroke-width:0.8;" x="1086.75" xlink:href="#md91b0ffbc1" y="1260"/>
      </g>
     </g>
     <g id="text_22">
      <!-- cortical subplate -->
      <g transform="translate(1011.840469 1280.677187)scale(0.18 -0.18)">
       <use xlink:href="#DejaVuSans-99"/>
       <use x="54.980469" xlink:href="#DejaVuSans-111"/>
       <use x="116.162109" xlink:href="#DejaVuSans-114"/>
       <use x="157.275391" xlink:href="#DejaVuSans-116"/>
       <use x="196.484375" xlink:href="#DejaVuSans-105"/>
       <use x="224.267578" xlink:href="#DejaVuSans-99"/>
       <use x="279.248047" xlink:href="#DejaVuSans-97"/>
       <use x="340.527344" xlink:href="#DejaVuSans-108"/>
       <use x="368.310547" xlink:href="#DejaVuSans-32"/>
       <use x="400.097656" xlink:href="#DejaVuSans-115"/>
       <use x="452.197266" xlink:href="#DejaVuSans-117"/>
       <use x="515.576172" xlink:href="#DejaVuSans-98"/>
       <use x="579.052734" xlink:href="#DejaVuSans-112"/>
       <use x="642.529297" xlink:href="#DejaVuSans-108"/>
       <use x="670.3125" xlink:href="#DejaVuSans-97"/>
       <use x="731.591797" xlink:href="#DejaVuSans-116"/>
       <use x="770.800781" xlink:href="#DejaVuSans-101"/>
      </g>
     </g>
    </g>
    <g id="xtick_14">
     <g id="line2d_20">
      <g>
       <use style="stroke:#000000;stroke-width:0.8;" x="1226.25" xlink:href="#md91b0ffbc1" y="1260"/>
      </g>
     </g>
     <g id="text_23">
      <!-- other -->
      <g transform="translate(1202.273438 1280.677187)scale(0.18 -0.18)">
       <use xlink:href="#DejaVuSans-111"/>
       <use x="61.181641" xlink:href="#DejaVuSans-116"/>
       <use x="100.390625" xlink:href="#DejaVuSans-104"/>
       <use x="163.769531" xlink:href="#DejaVuSans-101"/>
       <use x="225.292969" xlink:href="#DejaVuSans-114"/>
      </g>
     </g>
    </g>
    <g id="text_24">
     <!-- Brain Region -->
     <g transform="translate(673.928125 1303.6175)scale(0.2 -0.2)">
      <use xlink:href="#DejaVuSans-66"/>
      <use x="68.603516" xlink:href="#DejaVuSans-114"/>
      <use x="109.716797" xlink:href="#DejaVuSans-97"/>
      <use x="170.996094" xlink:href="#DejaVuSans-105"/>
      <use x="198.779297" xlink:href="#DejaVuSans-110"/>
      <use x="262.158203" xlink:href="#DejaVuSans-32"/>
      <use x="293.945312" xlink:href="#DejaVuSans-82"/>
      <use x="363.365234" xlink:href="#DejaVuSans-101"/>
      <use x="424.888672" xlink:href="#DejaVuSans-103"/>
      <use x="488.365234" xlink:href="#DejaVuSans-105"/>
      <use x="516.148438" xlink:href="#DejaVuSans-111"/>
      <use x="577.330078" xlink:href="#DejaVuSans-110"/>
     </g>
    </g>
   </g>
   <g id="matplotlib.axis_4">
    <g id="ytick_7">
     <g id="line2d_21">
      <g>
       <use style="stroke:#000000;stroke-width:0.8;" x="180" xlink:href="#mc4ae2b9a2e" y="1221.01922"/>
      </g>
     </g>
     <g id="text_25">
      <!-- 0.15 -->
      <defs>
       <path d="M 10.59375 35.5 
L 73.1875 35.5 
L 73.1875 27.203125 
L 10.59375 27.203125 
z
" id="DejaVuSans-8722"/>
       <path d="M 10.796875 72.90625 
L 49.515625 72.90625 
L 49.515625 64.59375 
L 19.828125 64.59375 
L 19.828125 46.734375 
Q 21.96875 47.46875 24.109375 47.828125 
Q 26.265625 48.1875 28.421875 48.1875 
Q 40.625 48.1875 47.75 41.5 
Q 54.890625 34.8125 54.890625 23.390625 
Q 54.890625 11.625 47.5625 5.09375 
Q 40.234375 -1.421875 26.90625 -1.421875 
Q 22.3125 -1.421875 17.546875 -0.640625 
Q 12.796875 0.140625 7.71875 1.703125 
L 7.71875 11.625 
Q 12.109375 9.234375 16.796875 8.0625 
Q 21.484375 6.890625 26.703125 6.890625 
Q 35.15625 6.890625 40.078125 11.328125 
Q 45.015625 15.765625 45.015625 23.390625 
Q 45.015625 31 40.078125 35.4375 
Q 35.15625 39.890625 26.703125 39.890625 
Q 22.75 39.890625 18.8125 39.015625 
Q 14.890625 38.140625 10.796875 36.28125 
z
" id="DejaVuSans-53"/>
      </defs>
      <g transform="translate(117.838437 1227.857814)scale(0.18 -0.18)">
       <use xlink:href="#DejaVuSans-8722"/>
       <use x="83.789062" xlink:href="#DejaVuSans-48"/>
       <use x="147.412109" xlink:href="#DejaVuSans-46"/>
       <use x="179.199219" xlink:href="#DejaVuSans-49"/>
       <use x="242.822266" xlink:href="#DejaVuSans-53"/>
      </g>
     </g>
    </g>
    <g id="ytick_8">
     <g id="line2d_22">
      <g>
       <use style="stroke:#000000;stroke-width:0.8;" x="180" xlink:href="#mc4ae2b9a2e" y="1151.466848"/>
      </g>
     </g>
     <g id="text_26">
      <!-- 0.10 -->
      <g transform="translate(117.838437 1158.305442)scale(0.18 -0.18)">
       <use xlink:href="#DejaVuSans-8722"/>
       <use x="83.789062" xlink:href="#DejaVuSans-48"/>
       <use x="147.412109" xlink:href="#DejaVuSans-46"/>
       <use x="179.199219" xlink:href="#DejaVuSans-49"/>
       <use x="242.822266" xlink:href="#DejaVuSans-48"/>
      </g>
     </g>
    </g>
    <g id="ytick_9">
     <g id="line2d_23">
      <g>
       <use style="stroke:#000000;stroke-width:0.8;" x="180" xlink:href="#mc4ae2b9a2e" y="1081.914475"/>
      </g>
     </g>
     <g id="text_27">
      <!-- 0.05 -->
      <g transform="translate(117.838437 1088.753069)scale(0.18 -0.18)">
       <use xlink:href="#DejaVuSans-8722"/>
       <use x="83.789062" xlink:href="#DejaVuSans-48"/>
       <use x="147.412109" xlink:href="#DejaVuSans-46"/>
       <use x="179.199219" xlink:href="#DejaVuSans-48"/>
       <use x="242.822266" xlink:href="#DejaVuSans-53"/>
      </g>
     </g>
    </g>
    <g id="ytick_10">
     <g id="line2d_24">
      <g>
       <use style="stroke:#000000;stroke-width:0.8;" x="180" xlink:href="#mc4ae2b9a2e" y="1012.362103"/>
      </g>
     </g>
     <g id="text_28">
      <!-- 0.00 -->
      <g transform="translate(132.921875 1019.200697)scale(0.18 -0.18)">
       <use xlink:href="#DejaVuSans-48"/>
       <use x="63.623047" xlink:href="#DejaVuSans-46"/>
       <use x="95.410156" xlink:href="#DejaVuSans-48"/>
       <use x="159.033203" xlink:href="#DejaVuSans-48"/>
      </g>
     </g>
    </g>
    <g id="ytick_11">
     <g id="line2d_25">
      <g>
       <use style="stroke:#000000;stroke-width:0.8;" x="180" xlink:href="#mc4ae2b9a2e" y="942.80973"/>
      </g>
     </g>
     <g id="text_29">
      <!-- 0.05 -->
      <g transform="translate(132.921875 949.648324)scale(0.18 -0.18)">
       <use xlink:href="#DejaVuSans-48"/>
       <use x="63.623047" xlink:href="#DejaVuSans-46"/>
       <use x="95.410156" xlink:href="#DejaVuSans-48"/>
       <use x="159.033203" xlink:href="#DejaVuSans-53"/>
      </g>
     </g>
    </g>
    <g id="ytick_12">
     <g id="line2d_26">
      <g>
       <use style="stroke:#000000;stroke-width:0.8;" x="180" xlink:href="#mc4ae2b9a2e" y="873.257358"/>
      </g>
     </g>
     <g id="text_30">
      <!-- 0.10 -->
      <g transform="translate(132.921875 880.095951)scale(0.18 -0.18)">
       <use xlink:href="#DejaVuSans-48"/>
       <use x="63.623047" xlink:href="#DejaVuSans-46"/>
       <use x="95.410156" xlink:href="#DejaVuSans-49"/>
       <use x="159.033203" xlink:href="#DejaVuSans-48"/>
      </g>
     </g>
    </g>
    <g id="ytick_13">
     <g id="line2d_27">
      <g>
       <use style="stroke:#000000;stroke-width:0.8;" x="180" xlink:href="#mc4ae2b9a2e" y="803.704985"/>
      </g>
     </g>
     <g id="text_31">
      <!-- 0.15 -->
      <g transform="translate(132.921875 810.543579)scale(0.18 -0.18)">
       <use xlink:href="#DejaVuSans-48"/>
       <use x="63.623047" xlink:href="#DejaVuSans-46"/>
       <use x="95.410156" xlink:href="#DejaVuSans-49"/>
       <use x="159.033203" xlink:href="#DejaVuSans-53"/>
      </g>
     </g>
    </g>
    <g id="text_32">
     <!-- Weight [PCA x GLM] -->
     <g transform="translate(109.679062 1113.384091)rotate(-90)scale(0.2 -0.2)">
      <use xlink:href="#DejaVuSans-87"/>
      <use x="98.798828" xlink:href="#DejaVuSans-101"/>
      <use x="160.322266" xlink:href="#DejaVuSans-105"/>
      <use x="188.105469" xlink:href="#DejaVuSans-103"/>
      <use x="251.582031" xlink:href="#DejaVuSans-104"/>
      <use x="314.960938" xlink:href="#DejaVuSans-116"/>
      <use x="354.169922" xlink:href="#DejaVuSans-32"/>
      <use x="385.957031" xlink:href="#DejaVuSans-91"/>
      <use x="424.970703" xlink:href="#DejaVuSans-80"/>
      <use x="485.273438" xlink:href="#DejaVuSans-67"/>
      <use x="555.097656" xlink:href="#DejaVuSans-65"/>
      <use x="623.505859" xlink:href="#DejaVuSans-32"/>
      <use x="655.292969" xlink:href="#DejaVuSans-120"/>
      <use x="714.472656" xlink:href="#DejaVuSans-32"/>
      <use x="746.259766" xlink:href="#DejaVuSans-71"/>
      <use x="823.75" xlink:href="#DejaVuSans-76"/>
      <use x="879.462891" xlink:href="#DejaVuSans-77"/>
      <use x="965.742188" xlink:href="#DejaVuSans-93"/>
     </g>
    </g>
   </g>
   <g id="LineCollection_2">
    <path clip-path="url(#p0d5eb9637f)" d="M -1 1012.362103 
L 1441 1012.362103 
" style="fill:none;stroke:#000000;stroke-width:1.5;"/>
   </g>
   <g id="line2d_28">
    <path clip-path="url(#p0d5eb9637f)" d="M 249.75 1089.887921 
L 249.75 933.601337 
" style="fill:none;stroke:#3d3d3d;stroke-linecap:square;stroke-width:1.5;"/>
   </g>
   <g id="line2d_29">
    <path clip-path="url(#p0d5eb9637f)" d="M 249.75 1031.305357 
L 249.75 992.18533 
" style="fill:none;stroke:#3d3d3d;stroke-linecap:square;stroke-width:4.5;"/>
   </g>
   <g id="line2d_30">
    <path clip-path="url(#p0d5eb9637f)" d="M 389.25 1078.555711 
L 389.25 946.619461 
" style="fill:none;stroke:#3d3d3d;stroke-linecap:square;stroke-width:1.5;"/>
   </g>
   <g id="line2d_31">
    <path clip-path="url(#p0d5eb9637f)" d="M 389.25 1029.815422 
L 389.25 996.512479 
" style="fill:none;stroke:#3d3d3d;stroke-linecap:square;stroke-width:4.5;"/>
   </g>
   <g id="line2d_32">
    <path clip-path="url(#p0d5eb9637f)" d="M 528.75 1091.785433 
L 528.75 929.224002 
" style="fill:none;stroke:#3d3d3d;stroke-linecap:square;stroke-width:1.5;"/>
   </g>
   <g id="line2d_33">
    <path clip-path="url(#p0d5eb9637f)" d="M 528.75 1031.344675 
L 528.75 990.445951 
" style="fill:none;stroke:#3d3d3d;stroke-linecap:square;stroke-width:4.5;"/>
   </g>
   <g id="line2d_34">
    <path clip-path="url(#p0d5eb9637f)" d="M 668.25 1083.302565 
L 668.25 936.378665 
" style="fill:none;stroke:#3d3d3d;stroke-linecap:square;stroke-width:1.5;"/>
   </g>
   <g id="line2d_35">
    <path clip-path="url(#p0d5eb9637f)" d="M 668.25 1028.653422 
L 668.25 991.693225 
" style="fill:none;stroke:#3d3d3d;stroke-linecap:square;stroke-width:4.5;"/>
   </g>
   <g id="line2d_36">
    <path clip-path="url(#p0d5eb9637f)" d="M 807.75 1089.357708 
L 807.75 934.263924 
" style="fill:none;stroke:#3d3d3d;stroke-linecap:square;stroke-width:1.5;"/>
   </g>
   <g id="line2d_37">
    <path clip-path="url(#p0d5eb9637f)" d="M 807.75 1031.179662 
L 807.75 992.361963 
" style="fill:none;stroke:#3d3d3d;stroke-linecap:square;stroke-width:4.5;"/>
   </g>
   <g id="line2d_38">
    <path clip-path="url(#p0d5eb9637f)" d="M 947.25 1081.54428 
L 947.25 943.032321 
" style="fill:none;stroke:#3d3d3d;stroke-linecap:square;stroke-width:1.5;"/>
   </g>
   <g id="line2d_39">
    <path clip-path="url(#p0d5eb9637f)" d="M 947.25 1029.432003 
L 947.25 994.57114 
" style="fill:none;stroke:#3d3d3d;stroke-linecap:square;stroke-width:4.5;"/>
   </g>
   <g id="line2d_40">
    <path clip-path="url(#p0d5eb9637f)" d="M 1086.75 1102.309795 
L 1086.75 923.992731 
" style="fill:none;stroke:#3d3d3d;stroke-linecap:square;stroke-width:1.5;"/>
   </g>
   <g id="line2d_41">
    <path clip-path="url(#p0d5eb9637f)" d="M 1086.75 1039.267318 
L 1086.75 989.24239 
" style="fill:none;stroke:#3d3d3d;stroke-linecap:square;stroke-width:4.5;"/>
   </g>
   <g id="line2d_42">
    <path clip-path="url(#p0d5eb9637f)" d="M 1226.25 1070.610862 
L 1226.25 942.115804 
" style="fill:none;stroke:#3d3d3d;stroke-linecap:square;stroke-width:1.5;"/>
   </g>
   <g id="line2d_43">
    <path clip-path="url(#p0d5eb9637f)" d="M 1226.25 1033.441826 
L 1226.25 996.514435 
" style="fill:none;stroke:#3d3d3d;stroke-linecap:square;stroke-width:4.5;"/>
   </g>
   <g id="patch_8">
    <path d="M 180 1260 
L 180 765.818182 
" style="fill:none;stroke:#000000;stroke-linecap:square;stroke-linejoin:miter;stroke-width:0.8;"/>
   </g>
   <g id="patch_9">
    <path d="M 1296 1260 
L 1296 765.818182 
" style="fill:none;stroke:#000000;stroke-linecap:square;stroke-linejoin:miter;stroke-width:0.8;"/>
   </g>
   <g id="patch_10">
    <path d="M 180 1260 
L 1296 1260 
" style="fill:none;stroke:#000000;stroke-linecap:square;stroke-linejoin:miter;stroke-width:0.8;"/>
   </g>
   <g id="patch_11">
    <path d="M 180 765.818182 
L 1296 765.818182 
" style="fill:none;stroke:#000000;stroke-linecap:square;stroke-linejoin:miter;stroke-width:0.8;"/>
   </g>
   <g id="PathCollection_1">
    <defs>
     <path d="M 0 1.5 
C 0.397805 1.5 0.77937 1.341951 1.06066 1.06066 
C 1.341951 0.77937 1.5 0.397805 1.5 0 
C 1.5 -0.397805 1.341951 -0.77937 1.06066 -1.06066 
C 0.77937 -1.341951 0.397805 -1.5 0 -1.5 
C -0.397805 -1.5 -0.77937 -1.341951 -1.06066 -1.06066 
C -1.341951 -0.77937 -1.5 -0.397805 -1.5 0 
C -1.5 0.397805 -1.341951 0.77937 -1.06066 1.06066 
C -0.77937 1.341951 -0.397805 1.5 0 1.5 
z
" id="ma5fac934d0" style="stroke:#3d3d3d;"/>
    </defs>
    <g clip-path="url(#p0d5eb9637f)">
     <use style="fill:#ffffff;stroke:#3d3d3d;" x="249.75" xlink:href="#ma5fac934d0" y="1010.583729"/>
    </g>
   </g>
   <g id="PathCollection_2">
    <g clip-path="url(#p0d5eb9637f)">
     <use style="fill:#ffffff;stroke:#3d3d3d;" x="389.25" xlink:href="#ma5fac934d0" y="1014.963681"/>
    </g>
   </g>
   <g id="PathCollection_3">
    <g clip-path="url(#p0d5eb9637f)">
     <use style="fill:#ffffff;stroke:#3d3d3d;" x="528.75" xlink:href="#ma5fac934d0" y="1008.943253"/>
    </g>
   </g>
   <g id="PathCollection_4">
    <g clip-path="url(#p0d5eb9637f)">
     <use style="fill:#ffffff;stroke:#3d3d3d;" x="668.25" xlink:href="#ma5fac934d0" y="1009.334877"/>
    </g>
   </g>
   <g id="PathCollection_5">
    <g clip-path="url(#p0d5eb9637f)">
     <use style="fill:#ffffff;stroke:#3d3d3d;" x="807.75" xlink:href="#ma5fac934d0" y="1011.38097"/>
    </g>
   </g>
   <g id="PathCollection_6">
    <g clip-path="url(#p0d5eb9637f)">
     <use style="fill:#ffffff;stroke:#3d3d3d;" x="947.25" xlink:href="#ma5fac934d0" y="1009.457974"/>
    </g>
   </g>
   <g id="PathCollection_7">
    <g clip-path="url(#p0d5eb9637f)">
     <use style="fill:#ffffff;stroke:#3d3d3d;" x="1086.75" xlink:href="#ma5fac934d0" y="1009.017935"/>
    </g>
   </g>
   <g id="PathCollection_8">
    <g clip-path="url(#p0d5eb9637f)">
     <use style="fill:#ffffff;stroke:#3d3d3d;" x="1226.25" xlink:href="#ma5fac934d0" y="1013.506206"/>
    </g>
   </g>
  </g>
 </g>
 <defs>
  <clipPath id="p901b42c7fa">
   <rect height="494.181818" width="1116" x="180" y="172.8"/>
  </clipPath>
  <clipPath id="p0d5eb9637f">
   <rect height="494.181818" width="1116" x="180" y="765.818182"/>
  </clipPath>
 </defs>
</svg>
